<svg width="744" height="525" viewBox="0 0 744 525" fill="none" xmlns="http://www.w3.org/2000/svg">
<g clip-path="url(#clip0_730_204)">
<path d="M384 0.5H16C7.43959 0.5 0.5 7.43959 0.5 16V292C0.5 300.56 7.43959 307.5 16 307.5H384C392.56 307.5 399.5 300.56 399.5 292V16C399.5 7.43959 392.56 0.5 384 0.5Z" fill="white" stroke="#D1D5DB"/>
<path d="M25.2773 22.3634H27.408L31.1125 31.4089H31.2489L34.9534 22.3634H37.0841V33.9998H35.4137V25.5793H35.3057L31.8739 33.9828H30.4875L27.0557 25.5737H26.9478V33.9998H25.2773V22.3634ZM43.1765 34.1759C42.3583 34.1759 41.6443 33.9884 41.0344 33.6134C40.4246 33.2384 39.9511 32.7138 39.614 32.0396C39.2768 31.3653 39.1083 30.5775 39.1083 29.6759C39.1083 28.7706 39.2768 27.979 39.614 27.3009C39.9511 26.6229 40.4246 26.0964 41.0344 25.7214C41.6443 25.3464 42.3583 25.1589 43.1765 25.1589C43.9946 25.1589 44.7087 25.3464 45.3185 25.7214C45.9284 26.0964 46.4018 26.6229 46.739 27.3009C47.0761 27.979 47.2446 28.7706 47.2446 29.6759C47.2446 30.5775 47.0761 31.3653 46.739 32.0396C46.4018 32.7138 45.9284 33.2384 45.3185 33.6134C44.7087 33.9884 43.9946 34.1759 43.1765 34.1759ZM43.1821 32.7498C43.7124 32.7498 44.1518 32.6096 44.5003 32.3293C44.8488 32.049 45.1064 31.6759 45.273 31.21C45.4435 30.7441 45.5287 30.2309 45.5287 29.6703C45.5287 29.1134 45.4435 28.6021 45.273 28.1362C45.1064 27.6665 44.8488 27.2896 44.5003 27.0055C44.1518 26.7214 43.7124 26.5793 43.1821 26.5793C42.648 26.5793 42.2049 26.7214 41.8526 27.0055C41.5041 27.2896 41.2446 27.6665 41.0742 28.1362C40.9075 28.6021 40.8242 29.1134 40.8242 29.6703C40.8242 30.2309 40.9075 30.7441 41.0742 31.21C41.2446 31.6759 41.5041 32.049 41.8526 32.3293C42.2049 32.6096 42.648 32.7498 43.1821 32.7498ZM55.6807 27.4032L54.1409 27.6759C54.0766 27.479 53.9743 27.2915 53.8341 27.1134C53.6978 26.9354 53.5122 26.7896 53.2773 26.6759C53.0425 26.5623 52.7489 26.5055 52.3966 26.5055C51.9156 26.5055 51.5141 26.6134 51.1921 26.8293C50.8701 27.0415 50.7091 27.3161 50.7091 27.6532C50.7091 27.9449 50.8171 28.1797 51.033 28.3578C51.2489 28.5358 51.5974 28.6816 52.0784 28.7953L53.4648 29.1134C54.2678 29.299 54.8663 29.585 55.2603 29.9714C55.6542 30.3578 55.8512 30.8596 55.8512 31.4771C55.8512 31.9998 55.6997 32.4657 55.3966 32.8748C55.0974 33.2801 54.6788 33.5983 54.1409 33.8293C53.6069 34.0604 52.9875 34.1759 52.283 34.1759C51.3057 34.1759 50.5084 33.9676 49.8909 33.5509C49.2735 33.1305 48.8947 32.5339 48.7546 31.7612L50.3966 31.5112C50.4989 31.9392 50.7091 32.2631 51.0273 32.4828C51.3455 32.6987 51.7603 32.8066 52.2716 32.8066C52.8284 32.8066 53.2735 32.6911 53.6069 32.46C53.9402 32.2252 54.1069 31.9392 54.1069 31.6021C54.1069 31.3293 54.0046 31.1002 53.8 30.9146C53.5993 30.729 53.2906 30.5888 52.8739 30.4941L51.3966 30.1703C50.5822 29.9846 49.98 29.6892 49.5898 29.2839C49.2034 28.8786 49.0103 28.3653 49.0103 27.7441C49.0103 27.229 49.1542 26.7782 49.4421 26.3918C49.73 26.0055 50.1277 25.7043 50.6353 25.4884C51.1428 25.2687 51.7243 25.1589 52.3796 25.1589C53.3228 25.1589 54.0652 25.3634 54.6069 25.7725C55.1485 26.1778 55.5065 26.7214 55.6807 27.4032ZM61.7929 25.2725V26.6362H57.0259V25.2725H61.7929ZM58.3043 23.1816H60.0032V31.4373C60.0032 31.7668 60.0524 32.015 60.1509 32.1816C60.2494 32.3445 60.3763 32.4562 60.5316 32.5168C60.6907 32.5737 60.863 32.6021 61.0486 32.6021C61.185 32.6021 61.3043 32.5926 61.4066 32.5737C61.5088 32.5547 61.5884 32.5396 61.6452 32.5282L61.952 33.9316C61.8535 33.9695 61.7134 34.0074 61.5316 34.0453C61.3498 34.0869 61.1225 34.1096 60.8498 34.1134C60.4028 34.121 59.9861 34.0415 59.5998 33.8748C59.2134 33.7081 58.9009 33.4506 58.6623 33.1021C58.4236 32.7536 58.3043 32.3161 58.3043 31.7896V23.1816ZM67.9066 33.9998V25.2725H69.5486V26.6589H69.6395C69.7986 26.1892 70.0789 25.8199 70.4804 25.5509C70.8857 25.2782 71.3441 25.1418 71.8554 25.1418C71.9615 25.1418 72.0865 25.1456 72.2304 25.1532C72.3782 25.1608 72.4937 25.1703 72.577 25.1816V26.8066C72.5088 26.7877 72.3876 26.7668 72.2134 26.7441C72.0391 26.7176 71.8649 26.7043 71.6907 26.7043C71.2891 26.7043 70.9312 26.7896 70.6168 26.96C70.3062 27.1267 70.06 27.3596 69.8782 27.6589C69.6963 27.9543 69.6054 28.2915 69.6054 28.6703V33.9998H67.9066ZM77.4961 34.1759C76.6362 34.1759 75.8957 33.9922 75.2745 33.6248C74.657 33.2536 74.1798 32.7328 73.8427 32.0623C73.5093 31.3881 73.3427 30.5983 73.3427 29.693C73.3427 28.799 73.5093 28.0112 73.8427 27.3293C74.1798 26.6475 74.6495 26.1153 75.2517 25.7328C75.8578 25.3502 76.5661 25.1589 77.3767 25.1589C77.8692 25.1589 78.3464 25.2403 78.8086 25.4032C79.2707 25.5661 79.6855 25.8218 80.0529 26.1703C80.4203 26.5187 80.7101 26.9714 80.9222 27.5282C81.1343 28.0812 81.2404 28.7536 81.2404 29.5453V30.1475H74.3029V28.8748H79.5756C79.5756 28.4278 79.4847 28.032 79.3029 27.6873C79.1211 27.3388 78.8654 27.0642 78.5358 26.8634C78.2101 26.6627 77.8275 26.5623 77.3881 26.5623C76.9108 26.5623 76.4942 26.6797 76.1381 26.9146C75.7858 27.1456 75.5131 27.4487 75.3199 27.8237C75.1305 28.1949 75.0358 28.5983 75.0358 29.0339V30.0282C75.0358 30.6115 75.1381 31.1078 75.3427 31.5168C75.551 31.9259 75.8408 32.2384 76.212 32.4543C76.5832 32.6665 77.0169 32.7725 77.5131 32.7725C77.8351 32.7725 78.1286 32.7271 78.3938 32.6362C78.6589 32.5415 78.8881 32.4013 79.0813 32.2157C79.2745 32.0301 79.4222 31.8009 79.5245 31.5282L81.1324 31.818C81.0036 32.2915 80.7726 32.7062 80.4392 33.0623C80.1097 33.4146 79.6949 33.6892 79.1949 33.8862C78.6987 34.0793 78.1324 34.1759 77.4961 34.1759ZM85.6651 34.193C85.1121 34.193 84.6121 34.0907 84.1651 33.8862C83.7181 33.6778 83.364 33.3767 83.1026 32.9828C82.845 32.5888 82.7162 32.1059 82.7162 31.5339C82.7162 31.0415 82.8109 30.6362 83.0003 30.318C83.1897 29.9998 83.4454 29.7479 83.7674 29.5623C84.0893 29.3767 84.4492 29.2365 84.8469 29.1418C85.2446 29.0471 85.6499 28.9752 86.0628 28.9259C86.5855 28.8653 87.0098 28.8161 87.3355 28.7782C87.6613 28.7365 87.898 28.6703 88.0458 28.5793C88.1935 28.4884 88.2674 28.3407 88.2674 28.1362V28.0964C88.2674 27.6002 88.1272 27.2157 87.8469 26.943C87.5704 26.6703 87.1575 26.5339 86.6083 26.5339C86.0363 26.5339 85.5855 26.6608 85.256 26.9146C84.9302 27.1646 84.7049 27.443 84.5799 27.7498L82.9833 27.3862C83.1727 26.8559 83.4492 26.4278 83.8128 26.1021C84.1802 25.7725 84.6026 25.5339 85.0799 25.3862C85.5571 25.2346 86.059 25.1589 86.5855 25.1589C86.934 25.1589 87.3034 25.2006 87.6935 25.2839C88.0874 25.3634 88.4549 25.5112 88.7958 25.7271C89.1405 25.943 89.4227 26.2517 89.6424 26.6532C89.8621 27.0509 89.9719 27.568 89.9719 28.2043V33.9998H88.3128V32.8066H88.2446C88.1348 33.0263 87.97 33.2422 87.7503 33.4543C87.5306 33.6665 87.2484 33.8426 86.9037 33.9828C86.559 34.1229 86.1462 34.193 85.6651 34.193ZM86.0344 32.8293C86.5041 32.8293 86.9056 32.7365 87.239 32.5509C87.5761 32.3653 87.8318 32.1229 88.006 31.8237C88.184 31.5206 88.273 31.1968 88.273 30.8521V29.7271C88.2124 29.7877 88.095 29.8445 87.9208 29.8975C87.7503 29.9468 87.5552 29.9903 87.3355 30.0282C87.1159 30.0623 86.9018 30.0945 86.6935 30.1248C86.4852 30.1513 86.3109 30.174 86.1708 30.193C85.8412 30.2346 85.5401 30.3047 85.2674 30.4032C84.9984 30.5017 84.7825 30.6437 84.6196 30.8293C84.4605 31.0112 84.381 31.2536 84.381 31.5566C84.381 31.9771 84.5363 32.2953 84.8469 32.5112C85.1575 32.7233 85.5534 32.8293 86.0344 32.8293ZM95.5017 34.1703C94.7972 34.1703 94.1684 33.9903 93.6154 33.6305C93.0661 33.2668 92.6343 32.7498 92.3199 32.0793C92.0093 31.4051 91.854 30.5964 91.854 29.6532C91.854 28.71 92.0112 27.9032 92.3256 27.2328C92.6438 26.5623 93.0794 26.049 93.6324 25.693C94.1855 25.3369 94.8123 25.1589 95.5131 25.1589C96.0548 25.1589 96.4904 25.2498 96.8199 25.4316C97.1533 25.6096 97.4108 25.818 97.5927 26.0566C97.7783 26.2953 97.9222 26.5055 98.0245 26.6873H98.1267V22.3634H99.8256V33.9998H98.1665V32.6418H98.0245C97.9222 32.8275 97.7745 33.0396 97.5813 33.2782C97.3919 33.5168 97.1305 33.7252 96.7972 33.9032C96.4639 34.0812 96.032 34.1703 95.5017 34.1703ZM95.8767 32.7214C96.3654 32.7214 96.7783 32.5926 97.1154 32.335C97.4563 32.0737 97.7139 31.7119 97.8881 31.2498C98.0661 30.7877 98.1551 30.2498 98.1551 29.6362C98.1551 29.0301 98.068 28.4998 97.8938 28.0453C97.7195 27.5907 97.4639 27.2365 97.1267 26.9828C96.7896 26.729 96.373 26.6021 95.8767 26.6021C95.3654 26.6021 94.9392 26.7346 94.5983 26.9998C94.2574 27.265 93.9998 27.6267 93.8256 28.085C93.6552 28.5434 93.5699 29.0604 93.5699 29.6362C93.5699 30.2195 93.657 30.7441 93.8313 31.21C94.0055 31.6759 94.2631 32.0453 94.604 32.318C94.9487 32.5869 95.373 32.7214 95.8767 32.7214ZM109.025 34.193C108.472 34.193 107.972 34.0907 107.525 33.8862C107.078 33.6778 106.723 33.3767 106.462 32.9828C106.204 32.5888 106.076 32.1059 106.076 31.5339C106.076 31.0415 106.17 30.6362 106.36 30.318C106.549 29.9998 106.805 29.7479 107.127 29.5623C107.449 29.3767 107.809 29.2365 108.206 29.1418C108.604 29.0471 109.009 28.9752 109.422 28.9259C109.945 28.8653 110.369 28.8161 110.695 28.7782C111.021 28.7365 111.258 28.6703 111.405 28.5793C111.553 28.4884 111.627 28.3407 111.627 28.1362V28.0964C111.627 27.6002 111.487 27.2157 111.206 26.943C110.93 26.6703 110.517 26.5339 109.968 26.5339C109.396 26.5339 108.945 26.6608 108.615 26.9146C108.29 27.1646 108.064 27.443 107.939 27.7498L106.343 27.3862C106.532 26.8559 106.809 26.4278 107.172 26.1021C107.54 25.7725 107.962 25.5339 108.439 25.3862C108.917 25.2346 109.419 25.1589 109.945 25.1589C110.294 25.1589 110.663 25.2006 111.053 25.2839C111.447 25.3634 111.814 25.5112 112.155 25.7271C112.5 25.943 112.782 26.2517 113.002 26.6532C113.222 27.0509 113.331 27.568 113.331 28.2043V33.9998H111.672V32.8066H111.604C111.494 33.0263 111.329 33.2422 111.11 33.4543C110.89 33.6665 110.608 33.8426 110.263 33.9828C109.919 34.1229 109.506 34.193 109.025 34.193ZM109.394 32.8293C109.864 32.8293 110.265 32.7365 110.598 32.5509C110.936 32.3653 111.191 32.1229 111.365 31.8237C111.544 31.5206 111.633 31.1968 111.633 30.8521V29.7271C111.572 29.7877 111.454 29.8445 111.28 29.8975C111.11 29.9468 110.915 29.9903 110.695 30.0282C110.475 30.0623 110.261 30.0945 110.053 30.1248C109.845 30.1513 109.67 30.174 109.53 30.193C109.201 30.2346 108.9 30.3047 108.627 30.4032C108.358 30.5017 108.142 30.6437 107.979 30.8293C107.82 31.0112 107.74 31.2536 107.74 31.5566C107.74 31.9771 107.896 32.2953 108.206 32.5112C108.517 32.7233 108.913 32.8293 109.394 32.8293ZM115.594 33.9998V25.2725H117.236V26.6589H117.327C117.486 26.1892 117.767 25.8199 118.168 25.5509C118.573 25.2782 119.032 25.1418 119.543 25.1418C119.649 25.1418 119.774 25.1456 119.918 25.1532C120.066 25.1608 120.181 25.1703 120.265 25.1816V26.8066C120.196 26.7877 120.075 26.7668 119.901 26.7441C119.727 26.7176 119.553 26.7043 119.378 26.7043C118.977 26.7043 118.619 26.7896 118.304 26.96C117.994 27.1267 117.748 27.3596 117.566 27.6589C117.384 27.9543 117.293 28.2915 117.293 28.6703V33.9998H115.594ZM126.324 25.2725V26.6362H121.557V25.2725H126.324ZM122.836 23.1816H124.535V31.4373C124.535 31.7668 124.584 32.015 124.682 32.1816C124.781 32.3445 124.908 32.4562 125.063 32.5168C125.222 32.5737 125.394 32.6021 125.58 32.6021C125.716 32.6021 125.836 32.5926 125.938 32.5737C126.04 32.5547 126.12 32.5396 126.177 32.5282L126.483 33.9316C126.385 33.9695 126.245 34.0074 126.063 34.0453C125.881 34.0869 125.654 34.1096 125.381 34.1134C124.934 34.121 124.517 34.0415 124.131 33.8748C123.745 33.7081 123.432 33.4506 123.194 33.1021C122.955 32.7536 122.836 32.3161 122.836 31.7896V23.1816ZM128.204 33.9998V25.2725H129.902V33.9998H128.204ZM129.061 23.9259C128.766 23.9259 128.512 23.8275 128.3 23.6305C128.092 23.4297 127.988 23.1911 127.988 22.9146C127.988 22.6343 128.092 22.3956 128.3 22.1987C128.512 21.9979 128.766 21.8975 129.061 21.8975C129.357 21.8975 129.609 21.9979 129.817 22.1987C130.029 22.3956 130.135 22.6343 130.135 22.9146C130.135 23.1911 130.029 23.4297 129.817 23.6305C129.609 23.8275 129.357 23.9259 129.061 23.9259ZM135.864 34.1759C135.019 34.1759 134.292 33.9846 133.682 33.6021C133.076 33.2157 132.61 32.6835 132.285 32.0055C131.959 31.3275 131.796 30.5509 131.796 29.6759C131.796 28.7896 131.963 28.0074 132.296 27.3293C132.629 26.6475 133.099 26.1153 133.705 25.7328C134.311 25.3502 135.025 25.1589 135.847 25.1589C136.51 25.1589 137.101 25.282 137.62 25.5282C138.139 25.7706 138.557 26.1115 138.875 26.5509C139.197 26.9903 139.389 27.5036 139.449 28.0907H137.796C137.705 27.6816 137.497 27.3293 137.171 27.0339C136.849 26.7384 136.417 26.5907 135.875 26.5907C135.402 26.5907 134.987 26.7157 134.631 26.9657C134.279 27.2119 134.004 27.5642 133.807 28.0225C133.61 28.4771 133.512 29.015 133.512 29.6362C133.512 30.2725 133.608 30.8218 133.802 31.2839C133.995 31.746 134.267 32.104 134.62 32.3578C134.976 32.6115 135.394 32.7384 135.875 32.7384C136.197 32.7384 136.489 32.6797 136.75 32.5623C137.016 32.4411 137.237 32.2687 137.415 32.0453C137.597 31.8218 137.724 31.5528 137.796 31.2384H139.449C139.389 31.8028 139.205 32.3066 138.898 32.7498C138.591 33.193 138.18 33.5415 137.665 33.7953C137.154 34.049 136.553 34.1759 135.864 34.1759ZM142.965 22.3634V33.9998H141.266V22.3634H142.965ZM149.012 34.1759C148.152 34.1759 147.411 33.9922 146.79 33.6248C146.173 33.2536 145.695 32.7328 145.358 32.0623C145.025 31.3881 144.858 30.5983 144.858 29.693C144.858 28.799 145.025 28.0112 145.358 27.3293C145.695 26.6475 146.165 26.1153 146.767 25.7328C147.374 25.3502 148.082 25.1589 148.892 25.1589C149.385 25.1589 149.862 25.2403 150.324 25.4032C150.786 25.5661 151.201 25.8218 151.569 26.1703C151.936 26.5187 152.226 26.9714 152.438 27.5282C152.65 28.0812 152.756 28.7536 152.756 29.5453V30.1475H145.819V28.8748H151.091C151.091 28.4278 151 28.032 150.819 27.6873C150.637 27.3388 150.381 27.0642 150.052 26.8634C149.726 26.6627 149.343 26.5623 148.904 26.5623C148.427 26.5623 148.01 26.6797 147.654 26.9146C147.302 27.1456 147.029 27.4487 146.836 27.8237C146.646 28.1949 146.552 28.5983 146.552 29.0339V30.0282C146.552 30.6115 146.654 31.1078 146.858 31.5168C147.067 31.9259 147.356 32.2384 147.728 32.4543C148.099 32.6665 148.533 32.7725 149.029 32.7725C149.351 32.7725 149.644 32.7271 149.91 32.6362C150.175 32.5415 150.404 32.4013 150.597 32.2157C150.79 32.0301 150.938 31.8009 151.04 31.5282L152.648 31.818C152.519 32.2915 152.288 32.7062 151.955 33.0623C151.625 33.4146 151.211 33.6892 150.711 33.8862C150.214 34.0793 149.648 34.1759 149.012 34.1759ZM161.181 27.4032L159.641 27.6759C159.577 27.479 159.474 27.2915 159.334 27.1134C159.198 26.9354 159.012 26.7896 158.777 26.6759C158.543 26.5623 158.249 26.5055 157.897 26.5055C157.416 26.5055 157.014 26.6134 156.692 26.8293C156.37 27.0415 156.209 27.3161 156.209 27.6532C156.209 27.9449 156.317 28.1797 156.533 28.3578C156.749 28.5358 157.097 28.6816 157.579 28.7953L158.965 29.1134C159.768 29.299 160.366 29.585 160.76 29.9714C161.154 30.3578 161.351 30.8596 161.351 31.4771C161.351 31.9998 161.2 32.4657 160.897 32.8748C160.597 33.2801 160.179 33.5983 159.641 33.8293C159.107 34.0604 158.488 34.1759 157.783 34.1759C156.806 34.1759 156.008 33.9676 155.391 33.5509C154.774 33.1305 154.395 32.5339 154.255 31.7612L155.897 31.5112C155.999 31.9392 156.209 32.2631 156.527 32.4828C156.846 32.6987 157.26 32.8066 157.772 32.8066C158.329 32.8066 158.774 32.6911 159.107 32.46C159.44 32.2252 159.607 31.9392 159.607 31.6021C159.607 31.3293 159.505 31.1002 159.3 30.9146C159.099 30.729 158.791 30.5888 158.374 30.4941L156.897 30.1703C156.082 29.9846 155.48 29.6892 155.09 29.2839C154.704 28.8786 154.51 28.3653 154.51 27.7441C154.51 27.229 154.654 26.7782 154.942 26.3918C155.23 26.0055 155.628 25.7043 156.135 25.4884C156.643 25.2687 157.224 25.1589 157.88 25.1589C158.823 25.1589 159.565 25.3634 160.107 25.7725C160.649 26.1778 161.007 26.7214 161.181 27.4032Z" fill="#111827"/>
<path d="M26.3125 73.0002H24.3438L27.9284 62.8184H30.2052L33.7947 73.0002H31.826L29.1066 64.9064H29.0271L26.3125 73.0002ZM26.3771 69.008H31.7465V70.4895H26.3771V69.008ZM35.0563 73.0002V65.3638H36.8013V66.6366H36.8808C37.0201 66.1957 37.2587 65.856 37.5968 65.6174C37.9381 65.3754 38.3277 65.2545 38.7652 65.2545C38.8646 65.2545 38.9755 65.2594 39.0982 65.2694C39.2241 65.276 39.3286 65.2876 39.4115 65.3042V66.9597C39.3353 66.9332 39.2142 66.91 39.0485 66.8901C38.8861 66.8669 38.7287 66.8553 38.5763 66.8553C38.2481 66.8553 37.9531 66.9266 37.6912 67.0691C37.4327 67.2083 37.2289 67.4022 37.0797 67.6508C36.9306 67.8993 36.8561 68.186 36.8561 68.5109V73.0002H35.0563ZM44.8305 65.3638V66.7559H40.4405V65.3638H44.8305ZM41.5244 63.5343H43.324V70.7033C43.324 70.9453 43.3606 71.1309 43.4335 71.2601C43.5097 71.3861 43.6091 71.4723 43.7317 71.5187C43.8543 71.5651 43.9902 71.5883 44.1394 71.5883C44.2521 71.5883 44.3548 71.58 44.4476 71.5634C44.5437 71.5468 44.6166 71.5319 44.6664 71.5187L44.9696 72.9256C44.8735 72.9588 44.7361 72.9952 44.5571 73.035C44.3814 73.0748 44.1659 73.098 43.9107 73.1046C43.4599 73.1179 43.0539 73.0499 42.6926 72.9008C42.3314 72.7483 42.0448 72.513 41.8327 72.1948C41.6238 71.8766 41.5211 71.4789 41.5244 71.0016V63.5343ZM46.3356 73.0002V65.3638H48.1354V73.0002H46.3356ZM47.2404 64.28C46.9554 64.28 46.7101 64.1856 46.5046 63.9966C46.2991 63.8044 46.1965 63.5741 46.1965 63.3056C46.1965 63.0338 46.2991 62.8035 46.5046 62.6145C46.7101 62.4223 46.9554 62.3262 47.2404 62.3262C47.5288 62.3262 47.774 62.4223 47.9762 62.6145C48.1817 62.8035 48.2844 63.0338 48.2844 63.3056C48.2844 63.5741 48.1817 63.8044 47.9762 63.9966C47.774 64.1856 47.5288 64.28 47.2404 64.28ZM53.3169 73.1493C52.5546 73.1493 51.9001 72.982 51.3533 72.6472C50.8097 72.3125 50.3904 71.8501 50.0954 71.2601C49.8038 70.6669 49.6579 69.9841 49.6579 69.2118C49.6579 68.4363 49.807 67.7519 50.1053 67.1586C50.4036 66.562 50.8246 66.098 51.3682 65.7665C51.915 65.4318 52.5613 65.2644 53.3071 65.2644C53.9269 65.2644 54.4754 65.3788 54.9527 65.6074C55.4333 65.8328 55.816 66.1527 56.101 66.567C56.3861 66.9779 56.5485 67.4585 56.5882 68.0087H54.8682C54.7986 67.6408 54.6328 67.3342 54.371 67.089C54.1125 66.8404 53.7661 66.7161 53.3319 66.7161C52.964 66.7161 52.6408 66.8155 52.3624 67.0144C52.084 67.21 51.8669 67.4917 51.7111 67.8596C51.5586 68.2275 51.4825 68.6683 51.4825 69.182C51.4825 69.7024 51.5586 70.1498 51.7111 70.5243C51.8636 70.8956 52.0773 71.1823 52.3524 71.3844C52.6308 71.5833 52.9574 71.6827 53.3319 71.6827C53.5971 71.6827 53.834 71.633 54.0428 71.5336C54.2549 71.4308 54.4323 71.2833 54.5748 71.0911C54.7174 70.8989 54.8151 70.6652 54.8682 70.3901H56.5882C56.5451 70.9304 56.3861 71.4093 56.111 71.8269C55.8359 72.2412 55.4613 72.566 54.9874 72.8013C54.5134 73.0333 53.9566 73.1493 53.3169 73.1493ZM59.8659 62.8184V73.0002H58.066V62.8184H59.8659ZM65.0971 73.1493C64.3315 73.1493 63.6703 72.9903 63.1134 72.6721C62.5599 72.3506 62.134 71.8965 61.8357 71.3099C61.5375 70.7199 61.3884 70.0255 61.3884 69.2268C61.3884 68.4413 61.5375 67.7519 61.8357 67.1586C62.1374 66.562 62.5583 66.098 63.0985 65.7665C63.6388 65.4318 64.2735 65.2644 65.0027 65.2644C65.4733 65.2644 65.9174 65.3406 66.335 65.4931C66.756 65.6422 67.1272 65.8743 67.4487 66.1891C67.7735 66.504 68.0287 66.905 68.2143 67.3922C68.3999 67.8761 68.4927 68.4529 68.4927 69.1224V69.6742H62.2336V68.4611H66.7676C66.7643 68.1164 66.6897 67.8099 66.5438 67.5414C66.398 67.2696 66.1943 67.0558 65.9324 66.9001C65.6739 66.7443 65.3722 66.6664 65.0275 66.6664C64.6596 66.6664 64.3366 66.7559 64.0582 66.9349C63.7797 67.1105 63.5626 67.3425 63.4069 67.6309C63.2544 67.9159 63.1764 68.2291 63.1731 68.5705V69.6295C63.1731 70.0736 63.2543 70.4547 63.4167 70.7729C63.5791 71.0878 63.8062 71.3297 64.0978 71.4988C64.3895 71.6645 64.7309 71.7474 65.122 71.7474C65.3838 71.7474 65.6208 71.7109 65.8329 71.638C66.045 71.5618 66.229 71.4507 66.3848 71.3049C66.5405 71.1591 66.6582 70.9784 66.7377 70.763L68.4181 70.9519C68.3121 71.396 68.1099 71.7838 67.8116 72.1153C67.5166 72.4434 67.1388 72.6986 66.6781 72.8809C66.2174 73.0599 65.6904 73.1493 65.0971 73.1493ZM75.2877 68.5258V73.0002H73.4879V65.3638H75.2081V66.6614H75.2976C75.4732 66.2339 75.7533 65.8941 76.1378 65.6422C76.5256 65.3904 77.0045 65.2644 77.5746 65.2644C78.1016 65.2644 78.5606 65.3771 78.9517 65.6025C79.3461 65.8279 79.651 66.1543 79.8665 66.5819C80.0852 67.0094 80.193 67.5281 80.1897 68.138V73.0002H78.3899V68.4164C78.3899 67.906 78.2573 67.5066 77.9922 67.2182C77.7303 66.9299 77.3674 66.7857 76.9035 66.7857C76.5886 66.7857 76.3085 66.8553 76.0632 66.9945C75.8212 67.1304 75.6307 67.3276 75.4915 67.5861C75.3556 67.8447 75.2877 68.1579 75.2877 68.5258ZM84.2166 73.1543C83.7327 73.1543 83.2969 73.0681 82.9091 72.8958C82.5246 72.7201 82.2197 72.4616 81.9943 72.1202C81.7722 71.7788 81.6612 71.3579 81.6612 70.8574C81.6612 70.4266 81.7408 70.0703 81.8998 69.7886C82.0589 69.5068 82.276 69.2814 82.5511 69.1124C82.8262 68.9434 83.1362 68.8158 83.4809 68.7296C83.8289 68.6401 84.1884 68.5755 84.5596 68.5357C85.0071 68.4893 85.37 68.4479 85.6484 68.4114C85.9268 68.3716 86.1291 68.312 86.2551 68.2324C86.3843 68.1496 86.4489 68.022 86.4489 67.8496V67.8198C86.4489 67.4453 86.3378 67.1553 86.1158 66.9498C85.8937 66.7443 85.5739 66.6415 85.1562 66.6415C84.7154 66.6415 84.3658 66.7377 84.1072 66.9299C83.852 67.1221 83.6797 67.3492 83.5902 67.611L81.9099 67.3724C82.0425 66.9083 82.2611 66.5206 82.566 66.209C82.871 65.8941 83.2438 65.6588 83.6846 65.503C84.1255 65.344 84.6127 65.2644 85.1463 65.2644C85.5142 65.2644 85.8804 65.3075 86.245 65.3937C86.6096 65.4798 86.9427 65.6224 87.2443 65.8212C87.5459 66.0168 87.7879 66.2836 87.9702 66.6216C88.1558 66.9597 88.2486 67.3823 88.2486 67.8894V73.0002H86.5185V71.9512H86.4588C86.3494 72.1633 86.1953 72.3622 85.9964 72.5478C85.8009 72.7301 85.554 72.8776 85.2557 72.9903C84.9607 73.0996 84.6143 73.1543 84.2166 73.1543ZM84.6839 71.8319C85.0452 71.8319 85.3584 71.7606 85.6236 71.6181C85.8887 71.4723 86.0926 71.28 86.2351 71.0414C86.3809 70.8028 86.4538 70.5426 86.4538 70.2609V69.361C86.3975 69.4074 86.3015 69.4505 86.1656 69.4903C86.033 69.53 85.8837 69.5648 85.718 69.5947C85.5523 69.6245 85.3882 69.651 85.2258 69.6742C85.0634 69.6974 84.9226 69.7173 84.8033 69.7339C84.5348 69.7703 84.2946 69.83 84.0825 69.9128C83.8704 69.9957 83.7029 70.1117 83.5802 70.2609C83.4576 70.4067 83.3963 70.5956 83.3963 70.8276C83.3963 71.1591 83.5173 71.4093 83.7592 71.5783C84.0012 71.7474 84.3094 71.8319 84.6839 71.8319ZM90.0583 73.0002V65.3638H91.7785V66.6614H91.868C92.0271 66.2239 92.2905 65.8825 92.6584 65.6373C93.0263 65.3887 93.4654 65.2644 93.9758 65.2644C94.4929 65.2644 94.9287 65.3904 95.2834 65.6422C95.6413 65.8908 95.8932 66.2306 96.0391 66.6614H96.1186C96.2876 66.2372 96.5727 65.8991 96.9737 65.6472C97.3781 65.392 97.857 65.2644 98.4105 65.2644C99.1132 65.2644 99.6865 65.4865 100.131 65.9306C100.575 66.3747 100.797 67.0227 100.797 67.8745V73.0002H98.9922V68.1529C98.9922 67.6789 98.8662 67.3326 98.6143 67.1138C98.3624 66.8918 98.0543 66.7807 97.6897 66.7807C97.2555 66.7807 96.9157 66.9166 96.6704 67.1884C96.4285 67.4569 96.3075 67.8065 96.3075 68.2374V73.0002H94.5426V68.0783C94.5426 67.6839 94.4233 67.369 94.1846 67.1337C93.9493 66.8984 93.6411 66.7807 93.2599 66.7807C93.0014 66.7807 92.7661 66.847 92.554 66.9796C92.3418 67.1089 92.1729 67.2928 92.047 67.5314C91.921 67.7668 91.8579 68.0419 91.8579 68.3567V73.0002H90.0583ZM106.004 73.1493C105.238 73.1493 104.577 72.9903 104.02 72.6721C103.466 72.3506 103.041 71.8965 102.742 71.3099C102.444 70.7199 102.295 70.0255 102.295 69.2268C102.295 68.4413 102.444 67.7519 102.742 67.1586C103.044 66.562 103.465 66.098 104.005 65.7665C104.545 65.4318 105.18 65.2644 105.909 65.2644C106.38 65.2644 106.824 65.3406 107.242 65.4931C107.663 65.6422 108.034 65.8743 108.355 66.1891C108.68 66.504 108.935 66.905 109.121 67.3922C109.306 67.8761 109.399 68.4529 109.399 69.1224V69.6742H103.14V68.4611H107.674C107.671 68.1164 107.596 67.8099 107.45 67.5414C107.305 67.2696 107.101 67.0558 106.839 66.9001C106.58 66.7443 106.279 66.6664 105.934 66.6664C105.566 66.6664 105.243 66.7559 104.965 66.9349C104.686 67.1105 104.469 67.3425 104.313 67.6309C104.161 67.9159 104.083 68.2291 104.08 68.5705V69.6295C104.08 70.0736 104.161 70.4547 104.323 70.7729C104.486 71.0878 104.713 71.3297 105.004 71.4988C105.296 71.6645 105.637 71.7474 106.029 71.7474C106.29 71.7474 106.527 71.7109 106.739 71.638C106.952 71.5618 107.136 71.4507 107.291 71.3049C107.447 71.1591 107.565 70.9784 107.644 70.763L109.325 70.9519C109.219 71.396 109.016 71.7838 108.718 72.1153C108.423 72.4434 108.045 72.6986 107.585 72.8809C107.124 73.0599 106.597 73.1493 106.004 73.1493Z" fill="#6B7280"/>
<path d="M322.322 73.0002H318.871V62.8184H322.391C323.402 62.8184 324.271 63.0222 324.996 63.4299C325.726 63.8342 326.286 64.4159 326.677 65.1749C327.068 65.9339 327.263 66.8421 327.263 67.8993C327.263 68.96 327.066 69.8714 326.672 70.6337C326.281 71.396 325.716 71.981 324.977 72.3887C324.241 72.7964 323.356 73.0002 322.322 73.0002ZM320.716 71.4043H322.232C322.942 71.4043 323.533 71.2751 324.007 71.0165C324.481 70.7547 324.837 70.3653 325.076 69.8482C325.315 69.3279 325.434 68.6782 325.434 67.8993C325.434 67.1205 325.315 66.4742 325.076 65.9604C324.837 65.4434 324.484 65.0573 324.017 64.802C323.553 64.5435 322.976 64.4143 322.287 64.4143H320.716V71.4043ZM333.804 69.7886V65.3638H335.603V73.0002H333.858V71.643H333.779C333.606 72.0705 333.323 72.4202 332.929 72.692C332.538 72.9637 332.055 73.0996 331.482 73.0996C330.981 73.0996 330.539 72.9886 330.154 72.7665C329.773 72.5412 329.475 72.2147 329.26 71.7871C329.044 71.3563 328.936 70.8359 328.936 70.2261V65.3638H330.736V69.9476C330.736 70.4315 330.869 70.816 331.134 71.1011C331.399 71.3861 331.747 71.5286 332.178 71.5286C332.443 71.5286 332.7 71.464 332.949 71.3347C333.197 71.2055 333.401 71.0132 333.56 70.758C333.722 70.4995 333.804 70.1763 333.804 69.7886ZM337.454 73.0002V65.3638H339.199V66.6366H339.279C339.418 66.1957 339.656 65.856 339.994 65.6174C340.336 65.3754 340.725 65.2545 341.163 65.2545C341.262 65.2545 341.373 65.2594 341.496 65.2694C341.622 65.276 341.726 65.2876 341.809 65.3042V66.9597C341.733 66.9332 341.612 66.91 341.446 66.8901C341.284 66.8669 341.126 66.8553 340.974 66.8553C340.646 66.8553 340.351 66.9266 340.089 67.0691C339.83 67.2083 339.627 67.4022 339.477 67.6508C339.328 67.8993 339.254 68.186 339.254 68.5109V73.0002H337.454ZM345.066 73.1543C344.582 73.1543 344.146 73.0681 343.758 72.8958C343.374 72.7201 343.069 72.4616 342.843 72.1202C342.621 71.7788 342.51 71.3579 342.51 70.8574C342.51 70.4266 342.59 70.0703 342.749 69.7886C342.908 69.5068 343.125 69.2814 343.4 69.1124C343.675 68.9434 343.985 68.8158 344.33 68.7296C344.678 68.6401 345.037 68.5755 345.409 68.5357C345.856 68.4893 346.219 68.4479 346.497 68.4114C346.776 68.3716 346.978 68.312 347.104 68.2324C347.233 68.1496 347.298 68.022 347.298 67.8496V67.8198C347.298 67.4453 347.187 67.1553 346.965 66.9498C346.743 66.7443 346.423 66.6415 346.005 66.6415C345.564 66.6415 345.215 66.7377 344.956 66.9299C344.701 67.1221 344.529 67.3492 344.439 67.611L342.759 67.3724C342.891 66.9083 343.11 66.5206 343.415 66.209C343.72 65.8941 344.093 65.6588 344.534 65.503C344.974 65.344 345.462 65.2644 345.995 65.2644C346.363 65.2644 346.729 65.3075 347.094 65.3937C347.459 65.4798 347.792 65.6224 348.093 65.8212C348.395 66.0168 348.637 66.2836 348.819 66.6216C349.005 66.9597 349.097 67.3823 349.097 67.8894V73.0002H347.367V71.9512H347.308C347.198 72.1633 347.044 72.3622 346.845 72.5478C346.65 72.7301 346.403 72.8776 346.105 72.9903C345.81 73.0996 345.463 73.1543 345.066 73.1543ZM345.533 71.8319C345.894 71.8319 346.207 71.7606 346.472 71.6181C346.738 71.4723 346.941 71.28 347.084 71.0414C347.23 70.8028 347.303 70.5426 347.303 70.2609V69.361C347.246 69.4074 347.15 69.4505 347.014 69.4903C346.882 69.53 346.733 69.5648 346.567 69.5947C346.401 69.6245 346.237 69.651 346.075 69.6742C345.912 69.6974 345.771 69.7173 345.652 69.7339C345.384 69.7703 345.143 69.83 344.931 69.9128C344.719 69.9957 344.552 70.1117 344.429 70.2609C344.307 70.4067 344.245 70.5956 344.245 70.8276C344.245 71.1591 344.366 71.4093 344.608 71.5783C344.85 71.7474 345.158 71.8319 345.533 71.8319ZM354.72 65.3638V66.7559H350.33V65.3638H354.72ZM351.414 63.5343H353.214V70.7033C353.214 70.9453 353.25 71.1309 353.323 71.2601C353.4 71.3861 353.499 71.4723 353.622 71.5187C353.744 71.5651 353.88 71.5883 354.029 71.5883C354.142 71.5883 354.245 71.58 354.338 71.5634C354.434 71.5468 354.507 71.5319 354.556 71.5187L354.86 72.9256C354.763 72.9588 354.626 72.9952 354.447 73.035C354.271 73.0748 354.056 73.098 353.801 73.1046C353.35 73.1179 352.944 73.0499 352.583 72.9008C352.221 72.7483 351.935 72.513 351.722 72.1948C351.514 71.8766 351.411 71.4789 351.414 71.0016V63.5343ZM356.225 73.0002V65.3638H358.025V73.0002H356.225ZM357.13 64.28C356.845 64.28 356.6 64.1856 356.395 63.9966C356.189 63.8044 356.086 63.5741 356.086 63.3056C356.086 63.0338 356.189 62.8035 356.395 62.6145C356.6 62.4223 356.845 62.3262 357.13 62.3262C357.419 62.3262 357.664 62.4223 357.866 62.6145C358.072 62.8035 358.174 63.0338 358.174 63.3056C358.174 63.5741 358.072 63.8044 357.866 63.9966C357.664 64.1856 357.419 64.28 357.13 64.28ZM363.207 73.1493C362.461 73.1493 361.815 72.9853 361.268 72.6572C360.721 72.329 360.297 71.87 359.995 71.28C359.697 70.6901 359.548 70.0007 359.548 69.2118C359.548 68.423 359.697 67.732 359.995 67.1387C360.297 66.5454 360.721 66.0847 361.268 65.7566C361.815 65.4285 362.461 65.2644 363.207 65.2644C363.953 65.2644 364.599 65.4285 365.146 65.7566C365.693 66.0847 366.115 66.5454 366.414 67.1387C366.715 67.732 366.866 68.423 366.866 69.2118C366.866 70.0007 366.715 70.6901 366.414 71.28C366.115 71.87 365.693 72.329 365.146 72.6572C364.599 72.9853 363.953 73.1493 363.207 73.1493ZM363.217 71.7076C363.621 71.7076 363.959 71.5966 364.231 71.3745C364.503 71.1491 364.705 70.8475 364.838 70.4697C364.973 70.0918 365.041 69.6709 365.041 69.2069C365.041 68.7395 364.973 68.317 364.838 67.9391C364.705 67.558 364.503 67.2547 364.231 67.0293C363.959 66.8039 363.621 66.6913 363.217 66.6913C362.802 66.6913 362.458 66.8039 362.183 67.0293C361.911 67.2547 361.707 67.558 361.571 67.9391C361.439 68.317 361.372 68.7395 361.372 69.2069C361.372 69.6709 361.439 70.0918 361.571 70.4697C361.707 70.8475 361.911 71.1491 362.183 71.3745C362.458 71.5966 362.802 71.7076 363.217 71.7076ZM370.193 68.5258V73.0002H368.393V65.3638H370.114V66.6614H370.203C370.379 66.2339 370.659 65.8941 371.043 65.6422C371.431 65.3904 371.91 65.2644 372.48 65.2644C373.007 65.2644 373.466 65.3771 373.857 65.6025C374.252 65.8279 374.557 66.1543 374.772 66.5819C374.991 67.0094 375.098 67.5281 375.095 68.138V73.0002H373.295V68.4164C373.295 67.906 373.163 67.5066 372.898 67.2182C372.636 66.9299 372.273 66.7857 371.809 66.7857C371.494 66.7857 371.214 66.8553 370.969 66.9945C370.727 67.1304 370.536 67.3276 370.397 67.5861C370.261 67.8447 370.193 68.1579 370.193 68.5258Z" fill="#6B7280"/>
<path d="M182 96H26C24.8954 96 24 96.8954 24 98V104C24 105.105 24.8954 106 26 106H182C183.105 106 184 105.105 184 104V98C184 96.8954 183.105 96 182 96Z" fill="#E5E7EB"/>
<path d="M374 96H334C332.895 96 332 96.8954 332 98V104C332 105.105 332.895 106 334 106H374C375.105 106 376 105.105 376 104V98C376 96.8954 375.105 96 374 96Z" fill="#E5E7EB"/>
<path d="M370 114H30C26.6863 114 24 116.686 24 120C24 123.314 26.6863 126 30 126H370C373.314 126 376 123.314 376 120C376 116.686 373.314 114 370 114Z" fill="#F2E6FB"/>
<path d="M304 114H30C26.6863 114 24 116.686 24 120C24 123.314 26.6863 126 30 126H304C307.314 126 310 123.314 310 120C310 116.686 307.314 114 304 114Z" fill="#B36AE6"/>
<path d="M182 150H26C24.8954 150 24 150.895 24 152V158C24 159.105 24.8954 160 26 160H182C183.105 160 184 159.105 184 158V152C184 150.895 183.105 150 182 150Z" fill="#E5E7EB"/>
<path d="M374 150H334C332.895 150 332 150.895 332 152V158C332 159.105 332.895 160 334 160H374C375.105 160 376 159.105 376 158V152C376 150.895 375.105 150 374 150Z" fill="#E5E7EB"/>
<path d="M370 168H30C26.6863 168 24 170.686 24 174C24 177.314 26.6863 180 30 180H370C373.314 180 376 177.314 376 174C376 170.686 373.314 168 370 168Z" fill="#F2E6FB"/>
<path d="M257 168H30C26.6863 168 24 170.686 24 174C24 177.314 26.6863 180 30 180H257C260.314 180 263 177.314 263 174C263 170.686 260.314 168 257 168Z" fill="#B36AE6"/>
<path d="M182 204H26C24.8954 204 24 204.895 24 206V212C24 213.105 24.8954 214 26 214H182C183.105 214 184 213.105 184 212V206C184 204.895 183.105 204 182 204Z" fill="#E5E7EB"/>
<path d="M374 204H334C332.895 204 332 204.895 332 206V212C332 213.105 332.895 214 334 214H374C375.105 214 376 213.105 376 212V206C376 204.895 375.105 204 374 204Z" fill="#E5E7EB"/>
<path d="M370 222H30C26.6863 222 24 224.686 24 228C24 231.314 26.6863 234 30 234H370C373.314 234 376 231.314 376 228C376 224.686 373.314 222 370 222Z" fill="#F2E6FB"/>
<path d="M219 222H30C26.6863 222 24 224.686 24 228C24 231.314 26.6863 234 30 234H219C222.314 234 225 231.314 225 228C225 224.686 222.314 222 219 222Z" fill="#B36AE6"/>
<path d="M182 258H26C24.8954 258 24 258.895 24 260V266C24 267.105 24.8954 268 26 268H182C183.105 268 184 267.105 184 266V260C184 258.895 183.105 258 182 258Z" fill="#E5E7EB"/>
<path d="M374 258H334C332.895 258 332 258.895 332 260V266C332 267.105 332.895 268 334 268H374C375.105 268 376 267.105 376 266V260C376 258.895 375.105 258 374 258Z" fill="#E5E7EB"/>
<path d="M370 276H30C26.6863 276 24 278.686 24 282C24 285.314 26.6863 288 30 288H370C373.314 288 376 285.314 376 282C376 278.686 373.314 276 370 276Z" fill="#F2E6FB"/>
<path d="M202 276H30C26.6863 276 24 278.686 24 282C24 285.314 26.6863 288 30 288H202C205.314 288 208 285.314 208 282C208 278.686 205.314 276 202 276Z" fill="#B36AE6"/>
<g filter="url(#filter0_dd_730_204)">
<path d="M648 75H380C371.163 75 364 82.1634 364 91V379C364 387.837 371.163 395 380 395H648C656.837 395 664 387.837 664 379V91C664 82.1634 656.837 75 648 75Z" fill="white"/>
<path d="M648 75.5H380C371.44 75.5 364.5 82.4396 364.5 91V379C364.5 387.56 371.44 394.5 380 394.5H648C656.56 394.5 663.5 387.56 663.5 379V91C663.5 82.4396 656.56 75.5 648 75.5Z" stroke="#F3F4F6"/>
</g>
<path d="M395.623 100.42C395.562 99.8827 395.312 99.466 394.873 99.1706C394.434 98.8713 393.881 98.7217 393.214 98.7217C392.737 98.7217 392.324 98.7974 391.975 98.949C391.627 99.0967 391.356 99.3012 391.163 99.5626C390.973 99.8202 390.879 100.114 390.879 100.443C390.879 100.72 390.943 100.958 391.072 101.159C391.204 101.36 391.377 101.528 391.589 101.665C391.805 101.797 392.036 101.909 392.282 102C392.528 102.087 392.765 102.159 392.992 102.216L394.129 102.511C394.5 102.602 394.881 102.725 395.271 102.881C395.661 103.036 396.023 103.241 396.356 103.494C396.689 103.748 396.958 104.062 397.163 104.438C397.371 104.812 397.475 105.261 397.475 105.784C397.475 106.443 397.305 107.028 396.964 107.54C396.627 108.051 396.136 108.455 395.492 108.75C394.852 109.045 394.078 109.193 393.168 109.193C392.297 109.193 391.543 109.055 390.907 108.778C390.271 108.502 389.773 108.11 389.413 107.602C389.053 107.091 388.854 106.485 388.816 105.784H390.578C390.612 106.205 390.748 106.555 390.987 106.835C391.229 107.112 391.538 107.318 391.913 107.455C392.292 107.587 392.706 107.653 393.157 107.653C393.653 107.653 394.095 107.576 394.481 107.42C394.871 107.261 395.178 107.042 395.401 106.761C395.625 106.477 395.737 106.146 395.737 105.767C395.737 105.422 395.638 105.14 395.441 104.92C395.248 104.701 394.985 104.519 394.651 104.375C394.322 104.231 393.949 104.104 393.532 103.994L392.157 103.619C391.225 103.366 390.487 102.992 389.941 102.5C389.4 102.008 389.129 101.356 389.129 100.545C389.129 99.8751 389.311 99.2899 389.674 98.7899C390.038 98.2899 390.53 97.9016 391.151 97.6251C391.773 97.3448 392.473 97.2046 393.254 97.2046C394.042 97.2046 394.737 97.3429 395.339 97.6194C395.945 97.8959 396.422 98.2766 396.771 98.7615C397.119 99.2425 397.301 99.7956 397.316 100.42H395.623ZM403.198 109.176C402.338 109.176 401.598 108.992 400.977 108.625C400.359 108.254 399.882 107.733 399.545 107.062C399.212 106.388 399.045 105.598 399.045 104.693C399.045 103.799 399.212 103.011 399.545 102.33C399.882 101.648 400.352 101.116 400.954 100.733C401.56 100.35 402.268 100.159 403.079 100.159C403.571 100.159 404.049 100.241 404.511 100.403C404.973 100.566 405.388 100.822 405.755 101.17C406.123 101.519 406.412 101.972 406.624 102.528C406.837 103.081 406.943 103.754 406.943 104.545V105.148H400.005V103.875H405.278C405.278 103.428 405.187 103.032 405.005 102.688C404.823 102.339 404.568 102.064 404.238 101.864C403.912 101.663 403.53 101.562 403.09 101.562C402.613 101.562 402.196 101.68 401.84 101.915C401.488 102.146 401.215 102.449 401.022 102.824C400.833 103.195 400.738 103.598 400.738 104.034V105.028C400.738 105.612 400.84 106.108 401.045 106.517C401.253 106.926 401.543 107.239 401.914 107.455C402.285 107.667 402.719 107.773 403.215 107.773C403.537 107.773 403.831 107.727 404.096 107.636C404.361 107.542 404.59 107.402 404.784 107.216C404.977 107.03 405.124 106.801 405.227 106.528L406.835 106.818C406.706 107.292 406.475 107.706 406.141 108.062C405.812 108.415 405.397 108.689 404.897 108.886C404.401 109.08 403.835 109.176 403.198 109.176ZM411.367 109.193C410.814 109.193 410.314 109.091 409.867 108.886C409.42 108.678 409.066 108.377 408.805 107.983C408.547 107.589 408.418 107.106 408.418 106.534C408.418 106.042 408.513 105.636 408.703 105.318C408.892 105 409.148 104.748 409.47 104.562C409.792 104.377 410.151 104.237 410.549 104.142C410.947 104.047 411.352 103.975 411.765 103.926C412.288 103.866 412.712 103.816 413.038 103.778C413.364 103.737 413.6 103.67 413.748 103.58C413.896 103.489 413.97 103.341 413.97 103.136V103.097C413.97 102.6 413.829 102.216 413.549 101.943C413.273 101.67 412.86 101.534 412.31 101.534C411.739 101.534 411.288 101.661 410.958 101.915C410.632 102.165 410.407 102.443 410.282 102.75L408.686 102.386C408.875 101.856 409.151 101.428 409.515 101.102C409.882 100.773 410.305 100.534 410.782 100.386C411.259 100.235 411.761 100.159 412.288 100.159C412.636 100.159 413.006 100.201 413.396 100.284C413.79 100.364 414.157 100.511 414.498 100.727C414.843 100.943 415.125 101.252 415.345 101.653C415.564 102.051 415.674 102.568 415.674 103.205V109H414.015V107.807H413.947C413.837 108.027 413.672 108.242 413.453 108.455C413.233 108.667 412.951 108.843 412.606 108.983C412.261 109.123 411.848 109.193 411.367 109.193ZM411.737 107.83C412.206 107.83 412.608 107.737 412.941 107.551C413.278 107.366 413.534 107.123 413.708 106.824C413.886 106.521 413.975 106.197 413.975 105.852V104.727C413.915 104.788 413.797 104.845 413.623 104.898C413.453 104.947 413.257 104.991 413.038 105.028C412.818 105.062 412.604 105.095 412.396 105.125C412.187 105.152 412.013 105.174 411.873 105.193C411.543 105.235 411.242 105.305 410.97 105.403C410.701 105.502 410.485 105.644 410.322 105.83C410.163 106.011 410.083 106.254 410.083 106.557C410.083 106.977 410.239 107.295 410.549 107.511C410.86 107.723 411.256 107.83 411.737 107.83ZM417.937 109V100.273H419.579V101.659H419.67C419.829 101.189 420.109 100.82 420.511 100.551C420.916 100.278 421.374 100.142 421.886 100.142C421.992 100.142 422.117 100.146 422.261 100.153C422.409 100.161 422.524 100.17 422.607 100.182V101.807C422.539 101.788 422.418 101.767 422.244 101.744C422.069 101.718 421.895 101.705 421.721 101.705C421.319 101.705 420.962 101.79 420.647 101.96C420.337 102.127 420.09 102.36 419.909 102.659C419.727 102.955 419.636 103.292 419.636 103.67V109H417.937ZM427.441 109.176C426.596 109.176 425.869 108.985 425.259 108.602C424.653 108.216 424.187 107.684 423.862 107.006C423.536 106.328 423.373 105.551 423.373 104.676C423.373 103.79 423.54 103.008 423.873 102.33C424.206 101.648 424.676 101.116 425.282 100.733C425.888 100.35 426.602 100.159 427.424 100.159C428.087 100.159 428.678 100.282 429.197 100.528C429.716 100.771 430.134 101.112 430.453 101.551C430.775 101.991 430.966 102.504 431.026 103.091H429.373C429.282 102.682 429.074 102.33 428.748 102.034C428.426 101.739 427.994 101.591 427.453 101.591C426.979 101.591 426.564 101.716 426.208 101.966C425.856 102.212 425.581 102.564 425.384 103.023C425.187 103.477 425.089 104.015 425.089 104.636C425.089 105.273 425.186 105.822 425.379 106.284C425.572 106.746 425.845 107.104 426.197 107.358C426.553 107.612 426.971 107.739 427.453 107.739C427.775 107.739 428.066 107.68 428.328 107.562C428.593 107.441 428.814 107.269 428.992 107.045C429.174 106.822 429.301 106.553 429.373 106.239H431.026C430.966 106.803 430.782 107.307 430.475 107.75C430.168 108.193 429.757 108.542 429.242 108.795C428.731 109.049 428.131 109.176 427.441 109.176ZM434.542 103.818V109H432.843V97.3637H434.519V101.693H434.627C434.832 101.223 435.144 100.85 435.565 100.574C435.985 100.297 436.534 100.159 437.212 100.159C437.811 100.159 438.334 100.282 438.781 100.528C439.231 100.775 439.58 101.142 439.826 101.631C440.076 102.116 440.201 102.722 440.201 103.449V109H438.502V103.653C438.502 103.013 438.337 102.517 438.008 102.165C437.678 101.809 437.22 101.631 436.633 101.631C436.231 101.631 435.872 101.716 435.553 101.886C435.239 102.057 434.991 102.307 434.809 102.636C434.631 102.962 434.542 103.356 434.542 103.818ZM453.242 102.403L451.703 102.676C451.638 102.479 451.536 102.292 451.396 102.114C451.259 101.936 451.074 101.79 450.839 101.676C450.604 101.562 450.311 101.506 449.958 101.506C449.477 101.506 449.076 101.614 448.754 101.83C448.432 102.042 448.271 102.316 448.271 102.653C448.271 102.945 448.379 103.18 448.595 103.358C448.811 103.536 449.159 103.682 449.64 103.795L451.026 104.114C451.829 104.299 452.428 104.585 452.822 104.972C453.216 105.358 453.413 105.86 453.413 106.477C453.413 107 453.261 107.466 452.958 107.875C452.659 108.28 452.24 108.598 451.703 108.83C451.168 109.061 450.549 109.176 449.845 109.176C448.867 109.176 448.07 108.968 447.453 108.551C446.835 108.131 446.456 107.534 446.316 106.761L447.958 106.511C448.061 106.939 448.271 107.263 448.589 107.483C448.907 107.699 449.322 107.807 449.833 107.807C450.39 107.807 450.835 107.691 451.168 107.46C451.502 107.225 451.668 106.939 451.668 106.602C451.668 106.33 451.566 106.1 451.362 105.915C451.161 105.729 450.852 105.589 450.436 105.494L448.958 105.17C448.144 104.985 447.542 104.689 447.151 104.284C446.765 103.879 446.572 103.366 446.572 102.744C446.572 102.229 446.716 101.778 447.004 101.392C447.292 101.006 447.689 100.705 448.197 100.489C448.704 100.269 449.286 100.159 449.941 100.159C450.884 100.159 451.627 100.364 452.168 100.773C452.71 101.178 453.068 101.722 453.242 102.403ZM460.809 105.381V100.273H462.514V109H460.843V107.489H460.752C460.552 107.955 460.23 108.343 459.786 108.653C459.347 108.96 458.8 109.114 458.144 109.114C457.584 109.114 457.087 108.991 456.656 108.744C456.228 108.494 455.891 108.125 455.644 107.636C455.402 107.148 455.281 106.544 455.281 105.824V100.273H456.98V105.619C456.98 106.214 457.144 106.687 457.474 107.04C457.803 107.392 458.231 107.568 458.758 107.568C459.076 107.568 459.392 107.489 459.707 107.33C460.025 107.17 460.288 106.93 460.497 106.608C460.709 106.286 460.813 105.877 460.809 105.381ZM468.472 109.176C467.628 109.176 466.9 108.985 466.291 108.602C465.685 108.216 465.219 107.684 464.893 107.006C464.567 106.328 464.404 105.551 464.404 104.676C464.404 103.79 464.571 103.008 464.904 102.33C465.238 101.648 465.707 101.116 466.313 100.733C466.919 100.35 467.633 100.159 468.455 100.159C469.118 100.159 469.709 100.282 470.228 100.528C470.747 100.771 471.166 101.112 471.484 101.551C471.806 101.991 471.997 102.504 472.058 103.091H470.404C470.313 102.682 470.105 102.33 469.779 102.034C469.457 101.739 469.025 101.591 468.484 101.591C468.01 101.591 467.596 101.716 467.239 101.966C466.887 102.212 466.613 102.564 466.416 103.023C466.219 103.477 466.12 104.015 466.12 104.636C466.12 105.273 466.217 105.822 466.41 106.284C466.603 106.746 466.876 107.104 467.228 107.358C467.584 107.612 468.003 107.739 468.484 107.739C468.806 107.739 469.097 107.68 469.359 107.562C469.624 107.441 469.846 107.269 470.024 107.045C470.205 106.822 470.332 106.553 470.404 106.239H472.058C471.997 106.803 471.813 107.307 471.507 107.75C471.2 108.193 470.789 108.542 470.274 108.795C469.762 109.049 469.162 109.176 468.472 109.176ZM477.551 109.176C476.706 109.176 475.979 108.985 475.369 108.602C474.763 108.216 474.297 107.684 473.971 107.006C473.645 106.328 473.482 105.551 473.482 104.676C473.482 103.79 473.649 103.008 473.982 102.33C474.316 101.648 474.785 101.116 475.391 100.733C475.998 100.35 476.712 100.159 477.534 100.159C478.196 100.159 478.787 100.282 479.306 100.528C479.825 100.771 480.244 101.112 480.562 101.551C480.884 101.991 481.075 102.504 481.136 103.091H479.482C479.391 102.682 479.183 102.33 478.857 102.034C478.535 101.739 478.104 101.591 477.562 101.591C477.088 101.591 476.674 101.716 476.318 101.966C475.965 102.212 475.691 102.564 475.494 103.023C475.297 103.477 475.198 104.015 475.198 104.636C475.198 105.273 475.295 105.822 475.488 106.284C475.681 106.746 475.954 107.104 476.306 107.358C476.662 107.612 477.081 107.739 477.562 107.739C477.884 107.739 478.176 107.68 478.437 107.562C478.702 107.441 478.924 107.269 479.102 107.045C479.284 106.822 479.41 106.553 479.482 106.239H481.136C481.075 106.803 480.891 107.307 480.585 107.75C480.278 108.193 479.867 108.542 479.352 108.795C478.84 109.049 478.24 109.176 477.551 109.176ZM486.714 109.176C485.854 109.176 485.114 108.992 484.492 108.625C483.875 108.254 483.398 107.733 483.06 107.062C482.727 106.388 482.56 105.598 482.56 104.693C482.56 103.799 482.727 103.011 483.06 102.33C483.398 101.648 483.867 101.116 484.47 100.733C485.076 100.35 485.784 100.159 486.595 100.159C487.087 100.159 487.564 100.241 488.026 100.403C488.489 100.566 488.903 100.822 489.271 101.17C489.638 101.519 489.928 101.972 490.14 102.528C490.352 103.081 490.458 103.754 490.458 104.545V105.148H483.521V103.875H488.793C488.793 103.428 488.703 103.032 488.521 102.688C488.339 102.339 488.083 102.064 487.754 101.864C487.428 101.663 487.045 101.562 486.606 101.562C486.129 101.562 485.712 101.68 485.356 101.915C485.004 102.146 484.731 102.449 484.538 102.824C484.348 103.195 484.254 103.598 484.254 104.034V105.028C484.254 105.612 484.356 106.108 484.56 106.517C484.769 106.926 485.059 107.239 485.43 107.455C485.801 107.667 486.235 107.773 486.731 107.773C487.053 107.773 487.346 107.727 487.612 107.636C487.877 107.542 488.106 107.402 488.299 107.216C488.492 107.03 488.64 106.801 488.742 106.528L490.35 106.818C490.221 107.292 489.99 107.706 489.657 108.062C489.328 108.415 488.913 108.689 488.413 108.886C487.917 109.08 487.35 109.176 486.714 109.176ZM498.883 102.403L497.343 102.676C497.279 102.479 497.177 102.292 497.036 102.114C496.9 101.936 496.714 101.79 496.48 101.676C496.245 101.562 495.951 101.506 495.599 101.506C495.118 101.506 494.716 101.614 494.394 101.83C494.072 102.042 493.911 102.316 493.911 102.653C493.911 102.945 494.019 103.18 494.235 103.358C494.451 103.536 494.8 103.682 495.281 103.795L496.667 104.114C497.47 104.299 498.069 104.585 498.462 104.972C498.856 105.358 499.053 105.86 499.053 106.477C499.053 107 498.902 107.466 498.599 107.875C498.3 108.28 497.881 108.598 497.343 108.83C496.809 109.061 496.19 109.176 495.485 109.176C494.508 109.176 493.711 108.968 493.093 108.551C492.476 108.131 492.097 107.534 491.957 106.761L493.599 106.511C493.701 106.939 493.911 107.263 494.23 107.483C494.548 107.699 494.962 107.807 495.474 107.807C496.031 107.807 496.476 107.691 496.809 107.46C497.142 107.225 497.309 106.939 497.309 106.602C497.309 106.33 497.207 106.1 497.002 105.915C496.802 105.729 496.493 105.589 496.076 105.494L494.599 105.17C493.784 104.985 493.182 104.689 492.792 104.284C492.406 103.879 492.212 103.366 492.212 102.744C492.212 102.229 492.356 101.778 492.644 101.392C492.932 101.006 493.33 100.705 493.837 100.489C494.345 100.269 494.927 100.159 495.582 100.159C496.525 100.159 497.267 100.364 497.809 100.773C498.351 101.178 498.709 101.722 498.883 102.403ZM507.461 102.403L505.921 102.676C505.857 102.479 505.755 102.292 505.614 102.114C505.478 101.936 505.293 101.79 505.058 101.676C504.823 101.562 504.529 101.506 504.177 101.506C503.696 101.506 503.294 101.614 502.972 101.83C502.65 102.042 502.489 102.316 502.489 102.653C502.489 102.945 502.597 103.18 502.813 103.358C503.029 103.536 503.378 103.682 503.859 103.795L505.245 104.114C506.048 104.299 506.647 104.585 507.041 104.972C507.435 105.358 507.632 105.86 507.632 106.477C507.632 107 507.48 107.466 507.177 107.875C506.878 108.28 506.459 108.598 505.921 108.83C505.387 109.061 504.768 109.176 504.063 109.176C503.086 109.176 502.289 108.968 501.671 108.551C501.054 108.131 500.675 107.534 500.535 106.761L502.177 106.511C502.279 106.939 502.489 107.263 502.808 107.483C503.126 107.699 503.541 107.807 504.052 107.807C504.609 107.807 505.054 107.691 505.387 107.46C505.721 107.225 505.887 106.939 505.887 106.602C505.887 106.33 505.785 106.1 505.58 105.915C505.38 105.729 505.071 105.589 504.654 105.494L503.177 105.17C502.363 104.985 501.76 104.689 501.37 104.284C500.984 103.879 500.791 103.366 500.791 102.744C500.791 102.229 500.935 101.778 501.222 101.392C501.51 101.006 501.908 100.705 502.416 100.489C502.923 100.269 503.505 100.159 504.16 100.159C505.103 100.159 505.846 100.364 506.387 100.773C506.929 101.178 507.287 101.722 507.461 102.403ZM513.734 109V100.273H515.376V101.659H515.467C515.626 101.189 515.906 100.82 516.308 100.551C516.713 100.278 517.171 100.142 517.683 100.142C517.789 100.142 517.914 100.146 518.058 100.153C518.205 100.161 518.321 100.17 518.404 100.182V101.807C518.336 101.788 518.215 101.767 518.041 101.744C517.866 101.718 517.692 101.705 517.518 101.705C517.116 101.705 516.758 101.79 516.444 101.96C516.133 102.127 515.887 102.36 515.705 102.659C515.524 102.955 515.433 103.292 515.433 103.67V109H513.734ZM522.336 109.193C521.783 109.193 521.283 109.091 520.836 108.886C520.389 108.678 520.035 108.377 519.774 107.983C519.516 107.589 519.387 107.106 519.387 106.534C519.387 106.042 519.482 105.636 519.671 105.318C519.861 105 520.116 104.748 520.438 104.562C520.76 104.377 521.12 104.237 521.518 104.142C521.916 104.047 522.321 103.975 522.734 103.926C523.257 103.866 523.681 103.816 524.007 103.778C524.332 103.737 524.569 103.67 524.717 103.58C524.864 103.489 524.938 103.341 524.938 103.136V103.097C524.938 102.6 524.798 102.216 524.518 101.943C524.241 101.67 523.828 101.534 523.279 101.534C522.707 101.534 522.257 101.661 521.927 101.915C521.601 102.165 521.376 102.443 521.251 102.75L519.654 102.386C519.844 101.856 520.12 101.428 520.484 101.102C520.851 100.773 521.274 100.534 521.751 100.386C522.228 100.235 522.73 100.159 523.257 100.159C523.605 100.159 523.974 100.201 524.364 100.284C524.758 100.364 525.126 100.511 525.467 100.727C525.811 100.943 526.094 101.252 526.313 101.653C526.533 102.051 526.643 102.568 526.643 103.205V109H524.984V107.807H524.916C524.806 108.027 524.641 108.242 524.421 108.455C524.202 108.667 523.919 108.843 523.575 108.983C523.23 109.123 522.817 109.193 522.336 109.193ZM522.705 107.83C523.175 107.83 523.577 107.737 523.91 107.551C524.247 107.366 524.503 107.123 524.677 106.824C524.855 106.521 524.944 106.197 524.944 105.852V104.727C524.883 104.788 524.766 104.845 524.592 104.898C524.421 104.947 524.226 104.991 524.007 105.028C523.787 105.062 523.573 105.095 523.364 105.125C523.156 105.152 522.982 105.174 522.842 105.193C522.512 105.235 522.211 105.305 521.938 105.403C521.669 105.502 521.453 105.644 521.291 105.83C521.132 106.011 521.052 106.254 521.052 106.557C521.052 106.977 521.207 107.295 521.518 107.511C521.828 107.723 522.224 107.83 522.705 107.83ZM532.98 100.273V101.636H528.212V100.273H532.98ZM529.491 98.1819H531.19V106.438C531.19 106.767 531.239 107.015 531.337 107.182C531.436 107.345 531.563 107.456 531.718 107.517C531.877 107.574 532.05 107.602 532.235 107.602C532.372 107.602 532.491 107.593 532.593 107.574C532.695 107.555 532.775 107.54 532.832 107.528L533.139 108.932C533.04 108.97 532.9 109.008 532.718 109.045C532.536 109.087 532.309 109.11 532.036 109.114C531.589 109.121 531.173 109.042 530.786 108.875C530.4 108.708 530.087 108.451 529.849 108.102C529.61 107.754 529.491 107.316 529.491 106.79V98.1819ZM538.526 109.176C537.667 109.176 536.926 108.992 536.305 108.625C535.687 108.254 535.21 107.733 534.873 107.062C534.54 106.388 534.373 105.598 534.373 104.693C534.373 103.799 534.54 103.011 534.873 102.33C535.21 101.648 535.68 101.116 536.282 100.733C536.888 100.35 537.596 100.159 538.407 100.159C538.9 100.159 539.377 100.241 539.839 100.403C540.301 100.566 540.716 100.822 541.083 101.17C541.451 101.519 541.74 101.972 541.953 102.528C542.165 103.081 542.271 103.754 542.271 104.545V105.148H535.333V103.875H540.606C540.606 103.428 540.515 103.032 540.333 102.688C540.151 102.339 539.896 102.064 539.566 101.864C539.24 101.663 538.858 101.562 538.418 101.562C537.941 101.562 537.525 101.68 537.168 101.915C536.816 102.146 536.543 102.449 536.35 102.824C536.161 103.195 536.066 103.598 536.066 104.034V105.028C536.066 105.612 536.168 106.108 536.373 106.517C536.581 106.926 536.871 107.239 537.242 107.455C537.614 107.667 538.047 107.773 538.543 107.773C538.865 107.773 539.159 107.727 539.424 107.636C539.689 107.542 539.918 107.402 540.112 107.216C540.305 107.03 540.453 106.801 540.555 106.528L542.163 106.818C542.034 107.292 541.803 107.706 541.47 108.062C541.14 108.415 540.725 108.689 540.225 108.886C539.729 109.08 539.163 109.176 538.526 109.176Z" fill="#111827"/>
<path d="M514 339C569.228 339 614 294.228 614 239C614 183.772 569.228 139 514 139C458.772 139 414 183.772 414 239C414 294.228 458.772 339 514 339Z" fill="#FBC1E7"/>
<path fill-rule="evenodd" clip-rule="evenodd" d="M513.499 139.001V192L471.498 200L439.285 172.533C457.498 152.074 483.987 139.146 513.499 139.001Z" fill="#FF92C3"/>
<g filter="url(#filter1_dd_730_204)">
<path d="M514 307C551.555 307 582 276.555 582 239C582 201.445 551.555 171 514 171C476.445 171 446 201.445 446 239C446 276.555 476.445 307 514 307Z" fill="white"/>
</g>
<mask id="mask0_730_204" style="mask-type:luminance" maskUnits="userSpaceOnUse" x="414" y="355" width="24" height="24">
<path d="M438 355H414V379H438V355Z" fill="white"/>
</mask>
<g mask="url(#mask0_730_204)">
<path d="M420 376L435 361L432 358L417 373L420 376Z" stroke="#E8006C" stroke-width="2" stroke-linecap="round" stroke-linejoin="round"/>
<path d="M429 361L432 364" stroke="#E8006C" stroke-width="2" stroke-linecap="round" stroke-linejoin="round"/>
<path d="M423 358C423 358.53 423.211 359.039 423.586 359.414C423.961 359.789 424.47 360 425 360C424.47 360 423.961 360.211 423.586 360.586C423.211 360.961 423 361.47 423 362C423 361.47 422.789 360.961 422.414 360.586C422.039 360.211 421.53 360 421 360C421.53 360 422.039 359.789 422.414 359.414C422.789 359.039 423 358.53 423 358Z" stroke="#E8006C" stroke-width="2" stroke-linecap="round" stroke-linejoin="round"/>
<path d="M433 368C433 368.53 433.211 369.039 433.586 369.414C433.961 369.789 434.47 370 435 370C434.47 370 433.961 370.211 433.586 370.586C433.211 370.961 433 371.47 433 372C433 371.47 432.789 370.961 432.414 370.586C432.039 370.211 431.53 370 431 370C431.53 370 432.039 369.789 432.414 369.414C432.789 369.039 433 368.53 433 368Z" stroke="#E8006C" stroke-width="2" stroke-linecap="round" stroke-linejoin="round"/>
</g>
<path d="M457.033 361.364V373H455.277V361.364H457.033ZM459.454 373V364.273H461.084V365.693H461.192C461.374 365.212 461.671 364.837 462.084 364.568C462.497 364.295 462.991 364.159 463.567 364.159C464.151 364.159 464.639 364.295 465.033 364.568C465.431 364.841 465.724 365.216 465.914 365.693H466.005C466.213 365.227 466.544 364.856 466.999 364.58C467.454 364.299 467.995 364.159 468.624 364.159C469.416 364.159 470.061 364.407 470.561 364.903C471.065 365.4 471.317 366.148 471.317 367.148V373H469.618V367.307C469.618 366.716 469.457 366.288 469.135 366.023C468.813 365.758 468.429 365.625 467.982 365.625C467.429 365.625 466.999 365.795 466.692 366.136C466.385 366.473 466.232 366.907 466.232 367.438V373H464.539V367.199C464.539 366.725 464.391 366.345 464.096 366.057C463.8 365.769 463.416 365.625 462.942 365.625C462.62 365.625 462.323 365.71 462.05 365.881C461.781 366.047 461.563 366.28 461.397 366.58C461.234 366.879 461.152 367.225 461.152 367.619V373H459.454ZM473.594 376.273V364.273H475.253V365.688H475.395C475.494 365.506 475.636 365.295 475.821 365.057C476.007 364.818 476.265 364.61 476.594 364.432C476.924 364.25 477.359 364.159 477.901 364.159C478.606 364.159 479.234 364.337 479.787 364.693C480.34 365.049 480.774 365.562 481.088 366.233C481.407 366.903 481.566 367.71 481.566 368.653C481.566 369.597 481.409 370.405 481.094 371.08C480.78 371.75 480.348 372.267 479.799 372.631C479.249 372.991 478.623 373.17 477.918 373.17C477.388 373.17 476.954 373.081 476.617 372.903C476.284 372.725 476.022 372.517 475.833 372.278C475.643 372.04 475.498 371.828 475.395 371.642H475.293V376.273H473.594ZM475.259 368.636C475.259 369.25 475.348 369.788 475.526 370.25C475.704 370.712 475.962 371.074 476.299 371.335C476.636 371.593 477.049 371.722 477.537 371.722C478.045 371.722 478.469 371.587 478.81 371.318C479.151 371.045 479.409 370.676 479.583 370.21C479.761 369.744 479.85 369.22 479.85 368.636C479.85 368.061 479.763 367.544 479.588 367.085C479.418 366.627 479.16 366.265 478.816 366C478.475 365.735 478.049 365.602 477.537 365.602C477.045 365.602 476.628 365.729 476.287 365.983C475.95 366.237 475.695 366.591 475.52 367.045C475.346 367.5 475.259 368.03 475.259 368.636ZM483.469 373V364.273H485.111V365.659H485.202C485.361 365.189 485.642 364.82 486.043 364.551C486.448 364.278 486.907 364.142 487.418 364.142C487.524 364.142 487.649 364.146 487.793 364.153C487.941 364.161 488.056 364.17 488.14 364.182V365.807C488.071 365.788 487.95 365.767 487.776 365.744C487.602 365.718 487.428 365.705 487.253 365.705C486.852 365.705 486.494 365.79 486.179 365.96C485.869 366.127 485.623 366.36 485.441 366.659C485.259 366.955 485.168 367.292 485.168 367.67V373H483.469ZM492.973 373.176C492.155 373.176 491.441 372.989 490.831 372.614C490.222 372.239 489.748 371.714 489.411 371.04C489.074 370.366 488.905 369.578 488.905 368.676C488.905 367.771 489.074 366.979 489.411 366.301C489.748 365.623 490.222 365.097 490.831 364.722C491.441 364.347 492.155 364.159 492.973 364.159C493.792 364.159 494.506 364.347 495.115 364.722C495.725 365.097 496.199 365.623 496.536 366.301C496.873 366.979 497.042 367.771 497.042 368.676C497.042 369.578 496.873 370.366 496.536 371.04C496.199 371.714 495.725 372.239 495.115 372.614C494.506 372.989 493.792 373.176 492.973 373.176ZM492.979 371.75C493.509 371.75 493.949 371.61 494.297 371.33C494.646 371.049 494.903 370.676 495.07 370.21C495.24 369.744 495.326 369.231 495.326 368.67C495.326 368.114 495.24 367.602 495.07 367.136C494.903 366.667 494.646 366.29 494.297 366.006C493.949 365.722 493.509 365.58 492.979 365.58C492.445 365.58 492.002 365.722 491.65 366.006C491.301 366.29 491.042 366.667 490.871 367.136C490.704 367.602 490.621 368.114 490.621 368.67C490.621 369.231 490.704 369.744 490.871 370.21C491.042 370.676 491.301 371.049 491.65 371.33C492.002 371.61 492.445 371.75 492.979 371.75ZM506.107 364.273L502.942 373H501.124L497.954 364.273H499.777L501.988 370.989H502.079L504.283 364.273H506.107ZM511.168 373.176C510.308 373.176 509.568 372.992 508.946 372.625C508.329 372.254 507.852 371.733 507.515 371.062C507.181 370.388 507.015 369.598 507.015 368.693C507.015 367.799 507.181 367.011 507.515 366.33C507.852 365.648 508.321 365.116 508.924 364.733C509.53 364.35 510.238 364.159 511.049 364.159C511.541 364.159 512.018 364.241 512.481 364.403C512.943 364.566 513.357 364.822 513.725 365.17C514.092 365.519 514.382 365.972 514.594 366.528C514.806 367.081 514.912 367.754 514.912 368.545V369.148H507.975V367.875H513.248C513.248 367.428 513.157 367.032 512.975 366.688C512.793 366.339 512.537 366.064 512.208 365.864C511.882 365.663 511.499 365.562 511.06 365.562C510.583 365.562 510.166 365.68 509.81 365.915C509.458 366.146 509.185 366.449 508.992 366.824C508.803 367.195 508.708 367.598 508.708 368.034V369.028C508.708 369.612 508.81 370.108 509.015 370.517C509.223 370.926 509.513 371.239 509.884 371.455C510.255 371.667 510.689 371.773 511.185 371.773C511.507 371.773 511.801 371.727 512.066 371.636C512.331 371.542 512.56 371.402 512.753 371.216C512.946 371.03 513.094 370.801 513.196 370.528L514.804 370.818C514.676 371.292 514.445 371.706 514.111 372.062C513.782 372.415 513.367 372.689 512.867 372.886C512.371 373.08 511.804 373.176 511.168 373.176ZM522.924 373L520.356 364.273H522.111L523.821 370.682H523.907L525.623 364.273H527.378L529.083 370.653H529.168L530.867 364.273H532.623L530.06 373H528.327L526.554 366.699H526.424L524.651 373H522.924ZM534.235 373V364.273H535.934V373H534.235ZM535.093 362.926C534.797 362.926 534.544 362.828 534.331 362.631C534.123 362.43 534.019 362.191 534.019 361.915C534.019 361.634 534.123 361.396 534.331 361.199C534.544 360.998 534.797 360.898 535.093 360.898C535.388 360.898 535.64 360.998 535.848 361.199C536.061 361.396 536.167 361.634 536.167 361.915C536.167 362.191 536.061 362.43 535.848 362.631C535.64 362.828 535.388 362.926 535.093 362.926ZM542.293 364.273V365.636H537.526V364.273H542.293ZM538.804 362.182H540.503V370.438C540.503 370.767 540.553 371.015 540.651 371.182C540.749 371.345 540.876 371.456 541.032 371.517C541.191 371.574 541.363 371.602 541.549 371.602C541.685 371.602 541.804 371.593 541.907 371.574C542.009 371.555 542.088 371.54 542.145 371.528L542.452 372.932C542.354 372.97 542.213 373.008 542.032 373.045C541.85 373.087 541.623 373.11 541.35 373.114C540.903 373.121 540.486 373.042 540.1 372.875C539.713 372.708 539.401 372.451 539.162 372.102C538.924 371.754 538.804 371.316 538.804 370.79V362.182ZM546.059 367.818V373H544.36V361.364H546.036V365.693H546.144C546.348 365.223 546.661 364.85 547.081 364.574C547.502 364.297 548.051 364.159 548.729 364.159C549.328 364.159 549.85 364.282 550.297 364.528C550.748 364.775 551.097 365.142 551.343 365.631C551.593 366.116 551.718 366.722 551.718 367.449V373H550.019V367.653C550.019 367.013 549.854 366.517 549.525 366.165C549.195 365.809 548.737 365.631 548.15 365.631C547.748 365.631 547.388 365.716 547.07 365.886C546.756 366.057 546.508 366.307 546.326 366.636C546.148 366.962 546.059 367.356 546.059 367.818ZM559.338 373H557.475L561.662 361.364H563.691L567.878 373H566.015L562.725 363.477H562.634L559.338 373ZM559.651 368.443H565.696V369.92H559.651V368.443ZM571.314 361.364V373H569.559V361.364H571.314ZM577.532 362.875V361.364H586.537V362.875H582.907V373H581.157V362.875H577.532ZM589.743 373.193C589.19 373.193 588.69 373.091 588.243 372.886C587.796 372.678 587.442 372.377 587.181 371.983C586.923 371.589 586.794 371.106 586.794 370.534C586.794 370.042 586.889 369.636 587.079 369.318C587.268 369 587.524 368.748 587.846 368.562C588.168 368.377 588.527 368.237 588.925 368.142C589.323 368.047 589.728 367.975 590.141 367.926C590.664 367.866 591.088 367.816 591.414 367.778C591.74 367.737 591.976 367.67 592.124 367.58C592.272 367.489 592.346 367.341 592.346 367.136V367.097C592.346 366.6 592.205 366.216 591.925 365.943C591.649 365.67 591.236 365.534 590.687 365.534C590.115 365.534 589.664 365.661 589.334 365.915C589.008 366.165 588.783 366.443 588.658 366.75L587.061 366.386C587.251 365.856 587.527 365.428 587.891 365.102C588.258 364.773 588.681 364.534 589.158 364.386C589.635 364.235 590.137 364.159 590.664 364.159C591.012 364.159 591.382 364.201 591.772 364.284C592.166 364.364 592.533 364.511 592.874 364.727C593.219 364.943 593.501 365.252 593.721 365.653C593.94 366.051 594.05 366.568 594.05 367.205V373H592.391V371.807H592.323C592.213 372.027 592.048 372.242 591.829 372.455C591.609 372.667 591.327 372.843 590.982 372.983C590.637 373.123 590.224 373.193 589.743 373.193ZM590.113 371.83C590.582 371.83 590.984 371.737 591.317 371.551C591.654 371.366 591.91 371.123 592.084 370.824C592.262 370.521 592.351 370.197 592.351 369.852V368.727C592.291 368.788 592.173 368.845 591.999 368.898C591.829 368.947 591.633 368.991 591.414 369.028C591.194 369.062 590.98 369.095 590.772 369.125C590.563 369.152 590.389 369.174 590.249 369.193C589.919 369.235 589.618 369.305 589.346 369.403C589.077 369.502 588.861 369.644 588.698 369.83C588.539 370.011 588.459 370.254 588.459 370.557C588.459 370.977 588.615 371.295 588.925 371.511C589.236 371.723 589.632 371.83 590.113 371.83ZM599.972 376.455C599.279 376.455 598.682 376.364 598.182 376.182C597.686 376 597.281 375.759 596.966 375.46C596.652 375.161 596.417 374.833 596.262 374.477L597.722 373.875C597.824 374.042 597.961 374.218 598.131 374.403C598.305 374.593 598.54 374.754 598.836 374.886C599.135 375.019 599.519 375.085 599.989 375.085C600.633 375.085 601.165 374.928 601.586 374.614C602.006 374.303 602.216 373.807 602.216 373.125V371.409H602.108C602.006 371.595 601.858 371.801 601.665 372.028C601.476 372.256 601.214 372.453 600.881 372.619C600.548 372.786 600.114 372.869 599.58 372.869C598.891 372.869 598.269 372.708 597.716 372.386C597.167 372.061 596.731 371.581 596.41 370.949C596.091 370.312 595.932 369.53 595.932 368.602C595.932 367.674 596.089 366.879 596.404 366.216C596.722 365.553 597.158 365.045 597.711 364.693C598.264 364.337 598.891 364.159 599.591 364.159C600.133 364.159 600.57 364.25 600.904 364.432C601.237 364.61 601.497 364.818 601.682 365.057C601.872 365.295 602.017 365.506 602.12 365.688H602.245V364.273H603.91V373.193C603.91 373.943 603.735 374.559 603.387 375.04C603.038 375.521 602.567 375.877 601.972 376.108C601.381 376.339 600.714 376.455 599.972 376.455ZM599.955 371.46C600.444 371.46 600.856 371.347 601.194 371.119C601.535 370.888 601.792 370.559 601.966 370.131C602.144 369.699 602.233 369.182 602.233 368.58C602.233 367.992 602.146 367.475 601.972 367.028C601.798 366.581 601.542 366.233 601.205 365.983C600.868 365.729 600.451 365.602 599.955 365.602C599.444 365.602 599.017 365.735 598.677 366C598.336 366.261 598.078 366.617 597.904 367.068C597.733 367.519 597.648 368.023 597.648 368.58C597.648 369.152 597.735 369.653 597.91 370.085C598.084 370.517 598.341 370.854 598.682 371.097C599.027 371.339 599.451 371.46 599.955 371.46ZM612.728 366.403L611.188 366.676C611.124 366.479 611.021 366.292 610.881 366.114C610.745 365.936 610.559 365.79 610.324 365.676C610.089 365.562 609.796 365.506 609.444 365.506C608.963 365.506 608.561 365.614 608.239 365.83C607.917 366.042 607.756 366.316 607.756 366.653C607.756 366.945 607.864 367.18 608.08 367.358C608.296 367.536 608.644 367.682 609.125 367.795L610.512 368.114C611.315 368.299 611.913 368.585 612.307 368.972C612.701 369.358 612.898 369.86 612.898 370.477C612.898 371 612.747 371.466 612.444 371.875C612.144 372.28 611.726 372.598 611.188 372.83C610.654 373.061 610.035 373.176 609.33 373.176C608.353 373.176 607.555 372.968 606.938 372.551C606.32 372.131 605.942 371.534 605.802 370.761L607.444 370.511C607.546 370.939 607.756 371.263 608.074 371.483C608.392 371.699 608.807 371.807 609.319 371.807C609.875 371.807 610.32 371.691 610.654 371.46C610.987 371.225 611.154 370.939 611.154 370.602C611.154 370.33 611.052 370.1 610.847 369.915C610.646 369.729 610.338 369.589 609.921 369.494L608.444 369.17C607.629 368.985 607.027 368.689 606.637 368.284C606.25 367.879 606.057 367.366 606.057 366.744C606.057 366.229 606.201 365.778 606.489 365.392C606.777 365.006 607.175 364.705 607.682 364.489C608.19 364.269 608.771 364.159 609.427 364.159C610.37 364.159 611.112 364.364 611.654 364.773C612.195 365.178 612.553 365.722 612.728 366.403Z" fill="#E8006C"/>
<path d="M489 221.869C488.4 222.569 487.8 223.269 487.5 224.169C487.1 224.969 487 225.969 487 226.869C487 228.769 487.7 230.469 489.1 231.769C490.4 233.069 492.2 233.769 494.1 233.769C496 233.769 497.7 233.069 499 231.669" stroke="#00875A" stroke-width="2" stroke-linecap="round" stroke-linejoin="round"/>
<path d="M501.202 228.569C501.702 227.269 501.802 225.969 501.502 224.569C501.202 223.269 500.602 222.069 499.602 221.069C498.602 220.069 497.402 219.469 496.102 219.169C494.802 218.869 493.402 218.969 492.102 219.469" stroke="#00875A" stroke-width="2" stroke-linecap="round" stroke-linejoin="round"/>
<path d="M490.801 226.669L493.101 228.869L497.701 224.269" stroke="#00875A" stroke-width="2" stroke-linecap="round" stroke-linejoin="round"/>
<path d="M514 231.669C513.1 231.669 512.4 231.569 511.7 231.269C511 230.969 510.5 230.569 510.1 230.069C509.7 229.569 509.5 228.969 509.5 228.369C509.5 227.869 509.6 227.469 509.8 226.969C510 226.569 510.3 226.169 510.7 225.969C511.1 225.669 511.5 225.469 511.9 225.469V225.369C511.3 225.269 510.8 224.969 510.4 224.469C510 223.969 509.8 223.469 509.8 222.769C509.8 222.169 510 221.669 510.3 221.169C510.6 220.669 511.1 220.369 511.7 220.069C512.3 219.769 513 219.669 513.7 219.669C514.5 219.669 515.1 219.769 515.7 220.069C516.3 220.369 516.8 220.669 517.1 221.169C517.4 221.669 517.6 222.169 517.6 222.769C517.6 223.369 517.4 223.969 517 224.469C516.6 224.969 516.1 225.269 515.5 225.369V225.469C516 225.569 516.4 225.769 516.7 225.969C517.1 226.269 517.4 226.569 517.6 226.969C517.8 227.369 517.9 227.869 517.9 228.369C517.9 228.969 517.7 229.569 517.3 230.069C516.9 230.569 516.4 230.969 515.8 231.269C515.6 231.569 514.9 231.669 514 231.669ZM514 230.069C514.4 230.069 514.8 229.969 515.1 229.869C515.4 229.669 515.7 229.469 515.9 229.269C516.1 228.969 516.2 228.669 516.2 228.269C516.2 227.869 516.1 227.569 515.9 227.269C515.7 226.969 515.5 226.769 515.1 226.569C514.8 226.369 514.4 226.369 514 226.369C513.6 226.369 513.2 226.469 512.9 226.569C512.6 226.769 512.3 226.969 512.1 227.269C511.9 227.569 511.8 227.869 511.8 228.269C511.8 228.669 511.9 228.969 512.1 229.269C512.3 229.569 512.5 229.769 512.9 229.869C513.3 229.969 513.6 230.069 514 230.069ZM514 224.669C514.4 224.669 514.7 224.569 515 224.469C515.3 224.369 515.5 224.169 515.7 223.869C515.9 223.569 515.9 223.269 515.9 222.969C515.9 222.669 515.8 222.369 515.7 222.069C515.5 221.769 515.3 221.569 515 221.469C514.7 221.369 514.4 221.269 514 221.269C513.6 221.269 513.3 221.369 513 221.469C512.7 221.569 512.5 221.769 512.3 222.069C512.1 222.369 512.1 222.669 512.1 222.969C512.1 223.269 512.2 223.569 512.3 223.869C512.5 224.169 512.7 224.369 513 224.469C513.4 224.569 513.7 224.669 514 224.669Z" fill="#111827"/>
<path d="M524 231.769C523.1 231.769 522.2 231.569 521.6 231.069C520.9 230.569 520.4 229.869 520 228.969C519.6 228.069 519.5 226.969 519.5 225.669C519.5 224.369 519.7 223.269 520 222.369C520.4 221.469 520.9 220.769 521.6 220.269C522.3 219.769 523.1 219.569 524 219.569C524.9 219.569 525.8 219.769 526.4 220.269C527 220.769 527.6 221.469 528 222.369C528.4 223.269 528.5 224.369 528.5 225.669C528.5 226.969 528.3 228.069 528 228.969C527.6 229.869 527.1 230.569 526.4 231.069C525.8 231.469 525 231.769 524 231.769ZM524 229.969C524.7 229.969 525.3 229.569 525.7 228.869C526.1 228.169 526.3 227.069 526.3 225.669C526.3 224.769 526.2 223.969 526 223.269C525.8 222.569 525.5 222.169 525.2 221.869C524.8 221.569 524.4 221.369 523.9 221.369C523.2 221.369 522.6 221.769 522.2 222.469C521.8 223.169 521.6 224.269 521.6 225.669C521.6 226.569 521.7 227.369 521.9 228.069C522.1 228.769 522.4 229.169 522.7 229.469C523.1 229.769 523.5 229.969 524 229.969Z" fill="#111827"/>
<path d="M530.102 222.569V221.969C530.102 221.469 530.202 221.069 530.402 220.669C530.602 220.269 530.902 219.969 531.302 219.769C531.702 219.569 532.102 219.469 532.702 219.469C533.202 219.469 533.702 219.569 534.102 219.769C534.502 219.969 534.702 220.269 534.902 220.669C535.102 221.069 535.202 221.469 535.202 221.969V222.569C535.202 223.069 535.102 223.469 534.902 223.869C534.702 224.269 534.402 224.569 534.102 224.769C533.702 224.969 533.302 225.069 532.702 225.069C532.202 225.069 531.702 224.969 531.302 224.769C530.902 224.569 530.702 224.269 530.502 223.869C530.202 223.469 530.102 223.069 530.102 222.569ZM530.802 231.469L538.902 219.669H540.302L532.202 231.469H530.802ZM531.602 221.969V222.569C531.602 222.869 531.702 223.169 531.802 223.369C531.902 223.569 532.202 223.769 532.602 223.769C533.002 223.769 533.202 223.669 533.402 223.369C533.602 223.069 533.602 222.869 533.602 222.569V221.969C533.602 221.669 533.502 221.369 533.402 221.169C533.302 220.869 533.002 220.769 532.602 220.769C532.202 220.769 532.002 220.869 531.802 221.169C531.702 221.369 531.602 221.669 531.602 221.969ZM536.102 229.269V228.669C536.102 228.169 536.202 227.769 536.402 227.369C536.602 226.969 536.902 226.669 537.202 226.469C537.602 226.269 538.002 226.069 538.502 226.069C539.002 226.069 539.502 226.169 539.902 226.369C540.302 226.569 540.502 226.869 540.702 227.269C540.902 227.669 541.002 228.069 541.002 228.569V229.169C541.002 229.669 540.902 230.069 540.702 230.469C540.502 230.869 540.202 231.169 539.902 231.369C539.502 231.569 539.102 231.769 538.502 231.769C537.902 231.769 537.502 231.669 537.102 231.369C536.702 231.169 536.402 230.869 536.302 230.469C536.202 230.069 536.102 229.769 536.102 229.269ZM537.602 228.669V229.269C537.602 229.569 537.702 229.869 537.802 230.069C537.902 230.269 538.202 230.469 538.602 230.469C539.002 230.469 539.202 230.369 539.402 230.069C539.502 229.769 539.602 229.569 539.602 229.269V228.669C539.602 228.369 539.502 228.069 539.402 227.869C539.302 227.569 539.002 227.469 538.602 227.469C538.202 227.469 538.002 227.569 537.802 227.869C537.702 228.069 537.602 228.369 537.602 228.669Z" fill="#111827"/>
<path d="M491 251.469C491 251.069 490.8 250.769 490.4 250.569C490.1 250.369 489.7 250.269 489.2 250.269C488.8 250.269 488.5 250.369 488.3 250.469C488 250.569 487.8 250.769 487.7 250.969C487.6 251.169 487.5 251.369 487.5 251.669C487.5 251.869 487.5 252.069 487.6 252.169C487.7 252.369 487.8 252.469 488 252.569C488.2 252.669 488.3 252.769 488.5 252.869C488.7 252.969 488.9 252.969 489 253.069L489.9 253.269C490.2 253.369 490.5 253.469 490.8 253.569C491.1 253.669 491.4 253.869 491.6 254.069C491.8 254.269 492.1 254.469 492.2 254.769C492.4 255.069 492.4 255.369 492.4 255.769C492.4 256.269 492.3 256.669 492 257.069C491.7 257.469 491.4 257.769 490.9 257.969C490.4 258.169 489.8 258.269 489.2 258.269C488.5 258.269 488 258.169 487.5 257.969C487 257.769 486.6 257.469 486.4 257.069C486.1 256.669 486 256.269 486 255.669H487.3C487.3 255.969 487.4 256.269 487.6 256.469C487.8 256.669 488 256.869 488.3 256.969C488.6 257.069 488.9 257.169 489.2 257.169C489.6 257.169 489.9 257.069 490.2 256.969C490.5 256.869 490.7 256.669 490.9 256.469C491.1 256.269 491.2 255.969 491.2 255.769C491.2 255.469 491.1 255.269 491 255.169C490.9 254.969 490.7 254.869 490.4 254.769C490.2 254.669 489.9 254.569 489.6 254.469L488.6 254.169C487.9 253.969 487.3 253.669 486.9 253.369C486.5 252.969 486.3 252.469 486.3 251.869C486.3 251.369 486.4 250.969 486.7 250.569C487 250.169 487.3 249.869 487.8 249.669C488.3 249.469 488.8 249.369 489.4 249.369C490 249.369 490.5 249.469 491 249.669C491.5 249.869 491.8 250.169 492.1 250.569C492.4 250.969 492.5 251.369 492.5 251.769H491V251.469Z" fill="#6B7280"/>
<path d="M499.5 249.168H500.8V254.868C500.8 255.468 500.7 256.068 500.4 256.468C500.1 256.968 499.7 257.268 499.2 257.568C498.7 257.868 498.1 257.968 497.4 257.968C496.7 257.968 496.1 257.868 495.6 257.568C495.1 257.268 494.7 256.968 494.4 256.468C494.1 255.968 494 255.468 494 254.868V249.168H495.3V254.768C495.3 255.168 495.4 255.468 495.6 255.868C495.8 256.168 496 256.368 496.3 256.568C496.6 256.768 497 256.868 497.4 256.868C497.8 256.868 498.2 256.768 498.5 256.568C498.8 256.368 499.1 256.168 499.2 255.868C499.3 255.568 499.5 255.168 499.5 254.768V249.168Z" fill="#6B7280"/>
<path d="M509.898 252.068H508.598C508.498 251.768 508.498 251.568 508.298 251.268C508.198 251.068 507.998 250.868 507.798 250.768C507.598 250.568 507.398 250.468 507.098 250.468C506.898 250.368 506.598 250.368 506.298 250.368C505.798 250.368 505.298 250.468 504.998 250.768C504.698 251.068 504.298 251.368 504.098 251.868C503.898 252.368 503.798 252.968 503.798 253.668C503.798 254.368 503.898 254.968 504.098 255.468C504.298 255.968 504.598 256.368 504.998 256.568C505.398 256.768 505.798 256.968 506.298 256.968C506.598 256.968 506.798 256.968 507.098 256.868C507.298 256.768 507.598 256.668 507.798 256.568C507.998 256.468 508.198 256.268 508.298 256.068C508.398 255.868 508.498 255.568 508.598 255.368H509.898C509.798 255.768 509.698 256.168 509.498 256.568C509.298 256.968 508.998 257.268 508.698 257.468C508.398 257.768 507.998 257.968 507.598 258.068C507.198 258.168 506.798 258.268 506.298 258.268C505.498 258.268 504.898 258.068 504.298 257.768C503.698 257.468 503.198 256.868 502.898 256.268C502.598 255.568 502.398 254.768 502.398 253.868C502.398 252.968 502.598 252.168 502.898 251.468C503.198 250.768 503.698 250.268 504.298 249.968C504.898 249.668 505.598 249.468 506.298 249.468C506.798 249.468 507.198 249.568 507.598 249.668C507.998 249.768 508.398 249.968 508.698 250.268C508.998 250.568 509.298 250.868 509.498 251.168C509.598 251.168 509.798 251.568 509.898 252.068Z" fill="#6B7280"/>
<path d="M518.602 252.068H517.302C517.202 251.768 517.202 251.568 517.002 251.268C516.902 251.068 516.702 250.868 516.502 250.768C516.302 250.568 516.102 250.468 515.802 250.468C515.602 250.368 515.302 250.368 515.002 250.368C514.502 250.368 514.002 250.468 513.702 250.768C513.402 251.068 513.002 251.368 512.802 251.868C512.602 252.368 512.502 252.968 512.502 253.668C512.502 254.368 512.602 254.968 512.802 255.468C513.002 255.968 513.302 256.368 513.702 256.568C514.102 256.768 514.502 256.968 515.002 256.968C515.302 256.968 515.502 256.968 515.802 256.868C516.002 256.768 516.302 256.668 516.502 256.568C516.702 256.468 516.902 256.268 517.002 256.068C517.102 255.868 517.202 255.568 517.302 255.368H518.602C518.502 255.768 518.402 256.168 518.202 256.568C518.002 256.968 517.702 257.268 517.402 257.468C517.102 257.768 516.702 257.968 516.302 258.068C515.902 258.168 515.502 258.268 515.002 258.268C514.202 258.268 513.602 258.068 513.002 257.768C512.402 257.468 511.902 256.868 511.602 256.268C511.302 255.568 511.102 254.768 511.102 253.868C511.102 252.968 511.302 252.168 511.602 251.468C511.902 250.768 512.402 250.268 513.002 249.968C513.602 249.668 514.302 249.468 515.002 249.468C515.502 249.468 515.902 249.568 516.302 249.668C516.702 249.768 517.102 249.968 517.402 250.268C517.702 250.568 518.002 250.868 518.202 251.168C518.402 251.468 518.502 251.568 518.602 252.068Z" fill="#6B7280"/>
<path d="M520.102 257.868V249.168H525.602V250.268H521.402V252.968H525.302V254.068H521.402V256.768H525.602V257.868H520.102Z" fill="#6B7280"/>
<path d="M531.898 251.469C531.898 251.069 531.698 250.769 531.298 250.569C530.998 250.369 530.598 250.269 530.098 250.269C529.698 250.269 529.398 250.369 529.198 250.469C528.898 250.569 528.698 250.769 528.598 250.969C528.498 251.169 528.398 251.369 528.398 251.669C528.398 251.869 528.398 252.069 528.498 252.169C528.598 252.369 528.698 252.469 528.898 252.569C529.098 252.669 529.198 252.769 529.398 252.869C529.598 252.969 529.798 252.969 529.898 253.069L530.798 253.269C531.098 253.369 531.398 253.469 531.698 253.569C531.998 253.669 532.298 253.869 532.498 254.069C532.698 254.269 532.998 254.469 533.098 254.769C533.298 255.069 533.298 255.369 533.298 255.769C533.298 256.269 533.198 256.669 532.898 257.069C532.598 257.469 532.298 257.769 531.798 257.969C531.298 258.169 530.698 258.269 530.098 258.269C529.398 258.269 528.898 258.169 528.398 257.969C527.898 257.769 527.498 257.469 527.298 257.069C526.998 256.669 526.898 256.269 526.898 255.669H528.198C528.198 255.969 528.298 256.269 528.498 256.469C528.698 256.669 528.898 256.869 529.198 256.969C529.498 257.069 529.798 257.169 530.098 257.169C530.498 257.169 530.798 257.069 531.098 256.969C531.398 256.869 531.598 256.669 531.798 256.469C531.998 256.269 532.098 255.969 532.098 255.769C532.098 255.469 531.998 255.269 531.898 255.169C531.798 254.969 531.598 254.869 531.298 254.769C531.098 254.669 530.798 254.569 530.498 254.469L529.498 254.169C528.798 253.969 528.198 253.669 527.798 253.369C527.398 252.969 527.198 252.469 527.198 251.869C527.198 251.369 527.298 250.969 527.598 250.569C527.898 250.169 528.198 249.869 528.698 249.669C529.198 249.469 529.698 249.369 530.298 249.369C530.898 249.369 531.398 249.469 531.898 249.669C532.398 249.869 532.698 250.169 532.998 250.569C533.298 250.969 533.398 251.369 533.398 251.769H531.898V251.469Z" fill="#6B7280"/>
<path d="M539.602 251.469C539.602 251.069 539.402 250.769 539.002 250.569C538.702 250.369 538.302 250.269 537.802 250.269C537.402 250.269 537.102 250.369 536.902 250.469C536.602 250.569 536.402 250.769 536.302 250.969C536.202 251.169 536.102 251.369 536.102 251.669C536.102 251.869 536.102 252.069 536.202 252.169C536.302 252.369 536.402 252.469 536.602 252.569C536.802 252.669 536.902 252.769 537.102 252.869C537.302 252.969 537.502 252.969 537.602 253.069L538.502 253.269C538.802 253.369 539.102 253.469 539.402 253.569C539.702 253.669 540.002 253.869 540.202 254.069C540.402 254.269 540.702 254.469 540.802 254.769C541.002 255.069 541.002 255.369 541.002 255.769C541.002 256.269 540.902 256.669 540.602 257.069C540.302 257.469 540.002 257.769 539.502 257.969C539.002 258.169 538.402 258.269 537.802 258.269C537.102 258.269 536.602 258.169 536.102 257.969C535.602 257.769 535.202 257.469 535.002 257.069C534.702 256.669 534.602 256.269 534.602 255.669H535.902C535.902 255.969 536.002 256.269 536.202 256.469C536.402 256.669 536.602 256.869 536.902 256.969C537.202 257.069 537.502 257.169 537.802 257.169C538.202 257.169 538.502 257.069 538.802 256.969C539.102 256.869 539.302 256.669 539.502 256.469C539.702 256.269 539.802 255.969 539.802 255.769C539.802 255.469 539.702 255.269 539.602 255.169C539.502 254.969 539.302 254.869 539.002 254.769C538.802 254.669 538.502 254.569 538.202 254.469L537.202 254.169C536.502 253.969 535.902 253.669 535.502 253.369C535.102 252.969 534.902 252.469 534.902 251.869C534.902 251.369 535.002 250.969 535.302 250.569C535.602 250.169 535.902 249.869 536.402 249.669C536.902 249.469 537.402 249.369 538.002 249.369C538.602 249.369 539.102 249.469 539.602 249.669C540.102 249.869 540.402 250.169 540.702 250.569C541.002 250.969 541.102 251.369 541.102 251.769H539.602V251.469Z" fill="#6B7280"/>
</g>
<defs>
<filter id="filter0_dd_730_204" x="264" y="17" width="500" height="520" filterUnits="userSpaceOnUse" color-interpolation-filters="sRGB">
<feFlood flood-opacity="0" result="BackgroundImageFix"/>
<feColorMatrix in="SourceAlpha" type="matrix" values="0 0 0 0 0 0 0 0 0 0 0 0 0 0 0 0 0 0 127 0" result="hardAlpha"/>
<feOffset dy="42"/>
<feGaussianBlur stdDeviation="50"/>
<feColorMatrix type="matrix" values="0 0 0 0 0.196078 0 0 0 0 0.196078 0 0 0 0 0.364706 0 0 0 0.13 0"/>
<feBlend mode="normal" in2="BackgroundImageFix" result="effect1_dropShadow_730_204"/>
<feColorMatrix in="SourceAlpha" type="matrix" values="0 0 0 0 0 0 0 0 0 0 0 0 0 0 0 0 0 0 127 0" result="hardAlpha"/>
<feOffset dy="30"/>
<feGaussianBlur stdDeviation="30"/>
<feColorMatrix type="matrix" values="0 0 0 0 0 0 0 0 0 0 0 0 0 0 0 0 0 0 0.13 0"/>
<feBlend mode="normal" in2="effect1_dropShadow_730_204" result="effect2_dropShadow_730_204"/>
<feBlend mode="normal" in="SourceGraphic" in2="effect2_dropShadow_730_204" result="shape"/>
</filter>
<filter id="filter1_dd_730_204" x="440" y="169" width="148" height="148" filterUnits="userSpaceOnUse" color-interpolation-filters="sRGB">
<feFlood flood-opacity="0" result="BackgroundImageFix"/>
<feColorMatrix in="SourceAlpha" type="matrix" values="0 0 0 0 0 0 0 0 0 0 0 0 0 0 0 0 0 0 127 0" result="hardAlpha"/>
<feOffset dy="2"/>
<feGaussianBlur stdDeviation="2"/>
<feComposite in2="hardAlpha" operator="out"/>
<feColorMatrix type="matrix" values="0 0 0 0 0 0 0 0 0 0 0 0 0 0 0 0 0 0 0.1 0"/>
<feBlend mode="normal" in2="BackgroundImageFix" result="effect1_dropShadow_730_204"/>
<feColorMatrix in="SourceAlpha" type="matrix" values="0 0 0 0 0 0 0 0 0 0 0 0 0 0 0 0 0 0 127 0" result="hardAlpha"/>
<feOffset dy="4"/>
<feGaussianBlur stdDeviation="3"/>
<feComposite in2="hardAlpha" operator="out"/>
<feColorMatrix type="matrix" values="0 0 0 0 0 0 0 0 0 0 0 0 0 0 0 0 0 0 0.1 0"/>
<feBlend mode="normal" in2="effect1_dropShadow_730_204" result="effect2_dropShadow_730_204"/>
<feBlend mode="normal" in="SourceGraphic" in2="effect2_dropShadow_730_204" result="shape"/>
</filter>
<clipPath id="clip0_730_204">
<rect width="744" height="525" fill="white"/>
</clipPath>
</defs>
</svg>
